<?xml version="1.0" encoding="UTF-8" standalone="no"?>
<svg
   xmlns:dc="http://purl.org/dc/elements/1.1/"
   xmlns:cc="http://creativecommons.org/ns#"
   xmlns:rdf="http://www.w3.org/1999/02/22-rdf-syntax-ns#"
   xmlns:svg="http://www.w3.org/2000/svg"
   xmlns="http://www.w3.org/2000/svg"
   id="svg16"
   version="1.1"
   width="16"
   viewBox="0 0 16 19"
   height="19"
   enable-background="new 0 0 90 90">
  <metadata
     id="metadata22">
    <rdf:RDF>
      <cc:Work
         rdf:about="">
        <dc:format>image/svg+xml</dc:format>
        <dc:type
           rdf:resource="http://purl.org/dc/dcmitype/StillImage" />
        <dc:title></dc:title>
      </cc:Work>
    </rdf:RDF>
  </metadata>
  <defs
     id="defs20" />
  <g
     id="g14"
     transform="matrix(.26058632 0 0 .25000001 -3.726385 -1.75)"
     fill="#fff">
    <path
       id="path12"
       transform="matrix(3.8375,0,0,3.9999998,14.300002,6.9999997)"
       d="M 8 0 C 3.6742671 0 0.18164062 3.8257811 0.18164062 8.5507812 C 0.18164062 10.125781 0.57370979 11.675391 1.3554688 13.025391 C 1.5639378 13.400391 2.085015 13.575 2.5019531 13.375 C 3.101524 13.111361 3.8394279 12.82248 4.5195312 12.644531 C 4.7541482 12.933211 5.0046824 13.187062 5.2714844 13.408203 C 2.2761675 13.854094 0 16.191403 0 19 L 1.7460938 19 C 1.7460938 16.8 3.7789533 15 6.3066406 15 L 6.3066406 14.041016 C 6.7030834 14.218506 7.1157094 14.35286 7.5566406 14.400391 C 8.5970398 14.447362 8.8676304 14.378494 9.6933594 14.074219 L 9.6933594 15 C 12.221047 15 14.253906 16.8 14.253906 19 L 16 19 C 16 16.203588 13.743632 13.874392 10.767578 13.414062 C 10.907491 13.300782 11.030793 13.17302 11.230469 12.949219 C 11.309682 12.86478 11.375691 12.758794 11.451172 12.667969 C 12.145731 12.84304 12.910076 13.104438 13.525391 13.375 C 13.629625 13.425 13.758379 13.449219 13.888672 13.449219 C 14.201375 13.449219 14.515523 13.300391 14.671875 13.025391 C 15.427575 11.675391 15.818359 10.125781 15.818359 8.5507812 C 15.818359 3.8257811 12.325733 0 8 0 z M 8 1.6757812 C 11.335505 1.6757812 14.071598 4.7507811 14.097656 8.5507812 C 14.097656 9.6007813 13.888926 10.600391 13.498047 11.525391 C 13.134418 11.396865 12.771832 11.2845 12.408203 11.175781 C 12.757194 10.442866 13.037305 9.6015931 13.238281 8.6503906 C 13.316457 8.3253906 13.341129 7.9746094 13.367188 7.5996094 C 13.367188 7.4746094 13.316457 7.3503906 13.238281 7.2753906 C 13.160105 7.2003906 13.056074 7.1503906 12.925781 7.1503906 L 8.8867188 7.1503906 L 8.7558594 5.875 C 8.7298007 5.675 8.5470277 5.5 8.3125 5.5 C 8.0779723 5.5 7.8951993 5.65 7.8691406 5.875 L 7.7402344 7.1503906 L 7.140625 7.1503906 L 6.75 4.4492188 C 6.6978827 4.2492187 6.5151097 4.0996094 6.3066406 4.0996094 C 6.0721129 4.0996094 5.8893399 4.2492187 5.8632812 4.4492188 L 5.4726562 7.1503906 L 3.0742188 7.1503906 C 2.9699842 7.1503906 2.8398946 7.2003906 2.7617188 7.2753906 C 2.6574842 7.3753906 2.6328125 7.4746094 2.6328125 7.5996094 C 2.6588711 7.9996094 2.6835429 8.3253906 2.7617188 8.6503906 C 2.9664104 9.6042173 3.2584045 10.442627 3.6132812 11.179688 C 3.2428729 11.290576 2.8699474 11.397569 2.5273438 11.525391 C 2.1364643 10.600391 1.9277344 9.5757813 1.9277344 8.5507812 C 1.9277344 4.7507811 4.6644951 1.6757812 8 1.6757812 z M 6.3066406 7.6503906 C 6.3587579 7.8753906 6.5415309 8.0253906 6.75 8.0253906 L 8.1308594 8.0253906 C 8.2090353 8.0253906 8.2603827 8.025 8.3125 8 C 8.3646173 8.025 8.4420234 8.0253906 8.4941406 8.0253906 L 12.455078 8.0253906 C 12.429019 8.2003906 12.403012 8.35 12.376953 8.5 C 12.012132 10.175 11.387896 11.5 10.580078 12.375 C 9.74855 13.172747 9.2968912 13.575494 7.6347656 13.574219 C 5.97264 13.572936 4.2745127 11.525 3.6230469 8.5 C 3.5969882 8.35 3.5709805 8.2003906 3.5449219 8.0253906 L 5.8632812 8.0253906 C 6.0978089 8.0253906 6.280582 7.8503906 6.3066406 7.6503906 z M 6.1503906 8.6503906 C 5.8637457 8.6503906 5.6289062 8.8753906 5.6289062 9.1503906 C 5.6289062 9.4253906 5.8637457 9.6503906 6.1503906 9.6503906 C 6.4370356 9.6503906 6.671875 9.4253906 6.671875 9.1503906 C 6.671875 8.8753906 6.4370356 8.6503906 6.1503906 8.6503906 z M 9.8496094 8.6503906 C 9.5629644 8.6503906 9.328125 8.8753906 9.328125 9.1503906 C 9.328125 9.4253906 9.5629644 9.6503906 9.8496094 9.6503906 C 10.136254 9.6503906 10.371094 9.4253906 10.371094 9.1503906 C 10.371094 8.8753906 10.136254 8.6503906 9.8496094 8.6503906 z "
       style="stroke-width:0.25523829" />
  </g>
</svg>
