<svg xmlns="http://www.w3.org/2000/svg"
	xmlns:xlink="http://www.w3.org/1999/xlink">
	<symbol id="note_icon" viewBox="0 0 500.0 500.0">
		<path
			d="m 152,384 c 9,14 -23,37 -42,51 -19,13 -61,31 -69,17 -9,-15 24,-40 44,-54 19,-13 58,-27 67,-14 z m 305,-79 c 8,10 -19,39 -38,52 -20,13 -65,28 -71,17 -7,-11 20,-38 39,-52 20,-13 62,-27 70,-17 z M 455,51 V 99 L 190,169 V 120 Z M 476,0 c -2,0 -3,0 -5,1 L 162,82 c -9,3 -16,11 -16,21 v 233 c -2,0 -4,0 -7,0 -20,2 -43,10 -65,24 -23,13 -43,30 -56,49 -13,19 -23,43 -15,65 9,22 30,27 51,26 20,-2 43,-10 66,-24 23,-13 42,-30 55,-49 13,-18 23,-42 15,-63 V 214 l 265,-69 v 114 c -3,0 -6,0 -9,0 -20,1 -43,10 -66,23 -23,14 -42,31 -55,50 -14,19 -24,43 -15,65 9,22 30,27 51,26 20,-2 43,-10 66,-24 23,-14 42,-31 55,-49 12,-17 21,-37 17,-57 V 22 C 499,10 489,0 476,0 Z"/>
	</symbol>
	<symbol id="bus_icon" viewBox="0 0 100 100">
		<path 
			d="M67 0c18,0 33,14 33,31l0 34c0,0 0,0 0,0l0 18c0,3 -2,4 -4,4l-5 0 0 7c0,3 -3,6 -7,6l-14 0c-4,0 -7,-3 -7,-6l0 -7 -26 0 0 7c0,3 -3,6 -7,6l-14 0c-4,0 -7,-3 -7,-6l0 -7 -5 0c-2,0 -4,-1 -4,-4l0 -52c0,-17 15,-31 32,-31l35 0 0 0zm-34 8c-14,0 -25,10 -25,23l0 49c26,0 55,0 84,0 0,-17 0,-33 0,-49 0,-13 -11,-23 -24,-23l-35 0zm41 6c1,0 3,1 3,3 0,1 -2,3 -3,3l-48 0c-2,0 -3,-2 -3,-3 0,-2 1,-3 3,-3l48 0zm8 10c3,0 5,3 5,6l0 19c0,3 -2,5 -5,5l-64 0c-3,0 -6,-2 -6,-5l0 -19c0,-3 3,-6 6,-6l64 0zm-66 6l0 19c0,1 1,2 2,2l64 0c1,0 2,-1 2,-2l0 -19c0,-2 -1,-3 -2,-3l-64 0c-1,0 -2,1 -2,3zm61 34c0,3 -2,6 -5,6 -3,0 -6,-3 -6,-6 0,-3 3,-5 6,-5 3,0 5,2 5,5zm-43 1c0,3 -3,5 -6,5 -3,0 -6,-2 -6,-5 0,-3 3,-6 6,-6 3,0 6,3 6,6zm35 -1c0,2 1,3 3,3 1,0 3,-1 3,-3 0,-1 -2,-2 -3,-2 -2,0 -3,1 -3,2zm-44 1c0,1 1,3 3,3 2,0 3,-2 3,-3 0,-2 -1,-3 -3,-3 -2,0 -3,1 -3,3zm-8 27l11 0 0 -5 -11 0 0 5zm54 0l11 0 0 -5 -11 0 0 5z" />
	</symbol>
	<symbol id="hause_icon" viewBox="0 0 100 79">
		<path 
			d="M50 0c0,0 0,0 0,0 0,0 0,0 0,0 -1,1 -2,1 -3,2l-45 35c-1,1 -2,2 -2,3 0,3 2,5 4,5 1,0 2,-1 3,-1l6 -5 0 17 0 19c0,2 2,4 4,4 0,0 0,0 0,0l23 0c0,0 0,0 0,0 2,0 4,-2 4,-4l0 -25 6 0 6 0 0 25c0,2 2,4 4,4l23 0c0,0 0,0 0,0 2,0 4,-2 4,-4l0 -36 6 5c1,0 2,1 3,1 2,0 4,-2 4,-5 0,-1 -1,-2 -2,-3l-45 -35c-1,-1 -2,-2 -3,-2 0,0 0,0 0,0l0 0zm0 10l29 23 0 38 -15 0 0 -25c0,-2 -2,-4 -4,-4 0,0 0,0 0,0l-10 0 -10 0c0,0 0,0 0,0 -2,0 -4,2 -4,4l0 25 -15 0 0 -15 0 -23 29 -23z"/>
		</symbol>
	<symbol id="girl_icon" viewBox="0 0 16 19">
		<path 
			d="M 8 0 C 3.6742671 0 0.18164062 3.8257811 0.18164062 8.5507812 C 0.18164062 10.125781 0.57370979 11.675391 1.3554688 13.025391 C 1.5639378 13.400391 2.085015 13.575 2.5019531 13.375 C 3.101524 13.111361 3.8394279 12.82248 4.5195312 12.644531 C 4.7541482 12.933211 5.0046824 13.187062 5.2714844 13.408203 C 2.2761675 13.854094 0 16.191403 0 19 L 1.7460938 19 C 1.7460938 16.8 3.7789533 15 6.3066406 15 L 6.3066406 14.041016 C 6.7030834 14.218506 7.1157094 14.35286 7.5566406 14.400391 C 8.5970398 14.447362 8.8676304 14.378494 9.6933594 14.074219 L 9.6933594 15 C 12.221047 15 14.253906 16.8 14.253906 19 L 16 19 C 16 16.203588 13.743632 13.874392 10.767578 13.414062 C 10.907491 13.300782 11.030793 13.17302 11.230469 12.949219 C 11.309682 12.86478 11.375691 12.758794 11.451172 12.667969 C 12.145731 12.84304 12.910076 13.104438 13.525391 13.375 C 13.629625 13.425 13.758379 13.449219 13.888672 13.449219 C 14.201375 13.449219 14.515523 13.300391 14.671875 13.025391 C 15.427575 11.675391 15.818359 10.125781 15.818359 8.5507812 C 15.818359 3.8257811 12.325733 0 8 0 z M 8 1.6757812 C 11.335505 1.6757812 14.071598 4.7507811 14.097656 8.5507812 C 14.097656 9.6007813 13.888926 10.600391 13.498047 11.525391 C 13.134418 11.396865 12.771832 11.2845 12.408203 11.175781 C 12.757194 10.442866 13.037305 9.6015931 13.238281 8.6503906 C 13.316457 8.3253906 13.341129 7.9746094 13.367188 7.5996094 C 13.367188 7.4746094 13.316457 7.3503906 13.238281 7.2753906 C 13.160105 7.2003906 13.056074 7.1503906 12.925781 7.1503906 L 8.8867188 7.1503906 L 8.7558594 5.875 C 8.7298007 5.675 8.5470277 5.5 8.3125 5.5 C 8.0779723 5.5 7.8951993 5.65 7.8691406 5.875 L 7.7402344 7.1503906 L 7.140625 7.1503906 L 6.75 4.4492188 C 6.6978827 4.2492187 6.5151097 4.0996094 6.3066406 4.0996094 C 6.0721129 4.0996094 5.8893399 4.2492187 5.8632812 4.4492188 L 5.4726562 7.1503906 L 3.0742188 7.1503906 C 2.9699842 7.1503906 2.8398946 7.2003906 2.7617188 7.2753906 C 2.6574842 7.3753906 2.6328125 7.4746094 2.6328125 7.5996094 C 2.6588711 7.9996094 2.6835429 8.3253906 2.7617188 8.6503906 C 2.9664104 9.6042173 3.2584045 10.442627 3.6132812 11.179688 C 3.2428729 11.290576 2.8699474 11.397569 2.5273438 11.525391 C 2.1364643 10.600391 1.9277344 9.5757813 1.9277344 8.5507812 C 1.9277344 4.7507811 4.6644951 1.6757812 8 1.6757812 z M 6.3066406 7.6503906 C 6.3587579 7.8753906 6.5415309 8.0253906 6.75 8.0253906 L 8.1308594 8.0253906 C 8.2090353 8.0253906 8.2603827 8.025 8.3125 8 C 8.3646173 8.025 8.4420234 8.0253906 8.4941406 8.0253906 L 12.455078 8.0253906 C 12.429019 8.2003906 12.403012 8.35 12.376953 8.5 C 12.012132 10.175 11.387896 11.5 10.580078 12.375 C 9.74855 13.172747 9.2968912 13.575494 7.6347656 13.574219 C 5.97264 13.572936 4.2745127 11.525 3.6230469 8.5 C 3.5969882 8.35 3.5709805 8.2003906 3.5449219 8.0253906 L 5.8632812 8.0253906 C 6.0978089 8.0253906 6.280582 7.8503906 6.3066406 7.6503906 z M 6.1503906 8.6503906 C 5.8637457 8.6503906 5.6289062 8.8753906 5.6289062 9.1503906 C 5.6289062 9.4253906 5.8637457 9.6503906 6.1503906 9.6503906 C 6.4370356 9.6503906 6.671875 9.4253906 6.671875 9.1503906 C 6.671875 8.8753906 6.4370356 8.6503906 6.1503906 8.6503906 z M 9.8496094 8.6503906 C 9.5629644 8.6503906 9.328125 8.8753906 9.328125 9.1503906 C 9.328125 9.4253906 9.5629644 9.6503906 9.8496094 9.6503906 C 10.136254 9.6503906 10.371094 9.4253906 10.371094 9.1503906 C 10.371094 8.8753906 10.136254 8.6503906 9.8496094 8.6503906 z "/>
	</symbol>
	<symbol id="cap_icon" viewBox="0 0 100 62">
		<path 
			d="M50 0c-2,0 -4,0 -5,1l-43 18c-1,1 -2,2 -2,2 0,1 1,2 2,3l12 5 0 19c0,0 0,0 0,0 0,1 0,2 1,2 0,0 13,12 34,12 20,0 35,-11 35,-11 1,-1 1,-2 1,-3l0 -19 10 -4 0 8c-2,1 -3,2 -3,4 0,0 0,0 0,0l0 14c0,2 2,3 4,3 2,0 4,-1 4,-3l0 -14c0,0 0,0 0,0 0,-2 -1,-3 -3,-4l0 -9 1 0c1,-1 2,-2 2,-3 0,0 -1,-1 -2,-2l-44 -18c-1,-1 -2,-1 -4,-1 0,0 0,0 0,0zm0 7l34 14 -34 15 -34 -15 34 -14zm-30 25l25 10c1,1 3,1 5,1 2,0 3,0 4,-1l25 -10 0 15c-2,1 -14,9 -30,9 -17,0 -27,-9 -29,-10l0 -14z"/>
	</symbol>
	<symbol id="star_icon" viewBox="0 0 4.7624999 4.7625001">
		<path 
		d="M 2.3812501,0.52611559 2.9967271,1.7732142 4.3729757,1.9731856 3.3771129,2.9439192 3.6122042,4.3146064 2.38125,3.6674543 1.1502958,4.3146064 1.3853871,2.9439192 0.38952428,1.9731856 1.7657729,1.7732142 Z" />
	</symbol>
	<symbol id="flash_icon" viewBox="0 0 3.9687499 7.6729169">
		<path 
		d="m 1.2990698,7.5182226 c -0.0535,-0.0194 -0.10262,-0.0705 -0.11839,-0.12307 -0.0154,-0.0513 -0.0629,0.15292 0.56608,-2.43052 0.16507,-0.67798 0.29784,-1.23497 0.29505,-1.23776 -0.003,-0.003 -0.41089,0.0953 -0.90689,0.21803 -0.49599999,0.12271 -0.92115999,0.22303 -0.94481999,0.22293 -0.0604,-2.5e-4 -0.11049,-0.024 -0.15331,-0.0728 -0.0301,-0.0342 -0.03680000365,-0.0514 -0.03680000365,-0.0942 0,-0.0402 0.61076000365,-2.58205 0.86684000365,-3.60752001 0.0297,-0.11898 0.0415,-0.14825 0.0743,-0.18455 0.0222,-0.0246 0.0568,-0.0481 0.0805,-0.0547 0.0262,-0.007 0.32317,-0.0116 0.80261,-0.0116 0.73755,-4e-5 0.76254,6.4e-4 0.808,0.0226 0.0258,0.0125 0.0588,0.0388 0.0734,0.0585 0.0579,0.0782 0.0699,0.0378 -0.35114,1.17995001 -0.21305,0.57797 -0.38563,1.05258 -0.38351,1.0547 0.002,0.002 0.40912,-0.0961 0.90443,-0.21826 1.02156,-0.25195 0.95036,-0.24198 1.04579,-0.14655 0.0915,0.0915 0.19261,-0.14807 -1.16361,2.75635 -0.66143,1.4165 -1.21298,2.59012 -1.22567,2.60805 -0.0449,0.0634 -0.14953,0.0905 -0.23287,0.0603 z"
			/>
	</symbol>

	<symbol id="leaf_icon" viewBox="0 0 7.9374998 6.3500002">
		<path 
			d="m 0.42207211,6.2841473 c -0.133786,-0.0241 -0.23466,-0.12102 -0.367458,-0.35312 -0.04865,-0.085 -0.0549499981,-0.1057 -0.05459999813,-0.17906 8.55e-4,-0.17869 0.14835099813,-0.37928 0.46333199813,-0.63013 0.252905,-0.20142 0.379077,-0.3264 0.397743,-0.394 0.01299,-0.0471 0.009,-0.0647 -0.04608,-0.20499 -0.08414,-0.21418 -0.09819,-0.28928 -0.106963,-0.57147 -0.01479,-0.4758 0.06217,-0.83239 0.267597,-1.24003 0.20218299,-0.40119 0.44088499,-0.68632 0.84928999,-1.01448 0.381926,-0.30688 0.950739,-0.5973 1.383198,-0.70620995 0.271765,-0.0684 0.681341,-0.1028 1.497189,-0.12559 0.740593,-0.0207 0.951994,-0.0396 1.268487,-0.1136 0.300758,-0.0703 0.457101,-0.15624 0.68486,-0.37648 0.266865,-0.25805 0.344878,-0.30241 0.554028,-0.31501 0.144368,-0.009 0.204192,0.0116 0.293493,0.0994 0.183424,0.18035 0.305017,0.52443 0.39916,1.12952995 0.07907,0.50821 0.0096,1.19245 -0.178716,1.75981 -0.191335,0.57652 -0.462352,1.01106 -0.906697,1.45377 -0.380753,0.37936 -0.796113,0.67414 -1.333776,0.94659 -1.046171,0.53013 -2.112844,0.63949 -3.150458,0.32299 -0.06154,-0.0188 -0.240701,-0.0967 -0.398136,-0.17314 -0.337734,-0.16402 -0.434093,-0.20269 -0.505126,-0.20269 -0.09218,0 -0.149412,0.0686 -0.43696799,0.52381 -0.08688,0.13753 -0.235839,0.29613 -0.316365,0.33684 -0.06615,0.0335 -0.164744,0.0439 -0.257037,0.0273 z m 1.71895599,-1.74522 c 0.02886,-0.019 0.195804,-0.17537 0.370985,-0.34754 0.384446,-0.37784 0.573552,-0.53962 0.84849,-0.72586 0.559181,-0.37881 1.082963,-0.53873 1.86967,-0.57087 0.235675,-0.01 0.24114,-0.0105 0.304152,-0.0495 0.09166,-0.0567 0.143263,-0.15625 0.134298,-0.25917 -0.0079,-0.0912 -0.05445,-0.16983 -0.129942,-0.21979 -0.04622,-0.0306 -0.07158,-0.0367 -0.17235,-0.0415 -0.06499,-0.003 -0.214959,0.002 -0.333273,0.0103 -0.95307,0.0705 -1.780217,0.4156 -2.51714,1.05004 -0.318351,0.27409 -0.749478,0.71502 -0.793173,0.81122 -0.03119,0.0687 -0.03122,0.15826 -5e-5,0.22686 0.03146,0.0693 0.124511,0.14894 0.185845,0.15914 0.02614,0.004 0.05349,0.009 0.06078,0.0113 0.02936,0.007 0.122322,-0.0221 0.171718,-0.0546 z" 
			/>
	</symbol>

	<symbol id="saerch_icon" viewBox="0 0 6.0854165 6.0854168">
		<path 
			d="M 5.4940711,6.0681547 C 5.4040011,6.0411092 5.3398791,5.9894132 5.1047731,5.7541667 4.9934541,5.6427909 4.7062551,5.3594412 4.4665551,5.124514 l -0.43582,-0.4271602 -0.127429,0.080338 C 3.4602111,5.05697 2.8978471,5.1859005 2.3483511,5.1341746 1.5612821,5.0601236 0.8641541,4.6511567 0.4352631,4.0119533 0.3462531,3.8793003 0.1755241,3.5311709 0.1243091,3.3778994 c -0.129052,-0.3862126 -0.161253,-0.9121641 -0.07949,-1.2983767 0.214161,-1.0116539 0.927498,-1.75370034 1.928715,-2.00632188 1.119607,-0.28251139 2.34765,0.2738588 2.877282,1.30355628 0.118688,0.2307556 0.162308,0.3435885 0.220125,0.569424 0.169671,0.662746 0.0679,1.3652022 -0.280852,1.9385682 l -0.08904,0.1463754 0.656355,0.6587541 c 0.422649,0.4241862 0.668975,0.6854504 0.691798,0.7337332 0.05006,0.1059168 0.0479,0.2945572 -0.0045,0.3939172 -0.107632,0.2040593 -0.345337,0.3122615 -0.550626,0.2506455 z m -2.652571,-1.8731 c 0.349521,-0.056586 0.618168,-0.1975623 0.888716,-0.4663114 0.332474,-0.3302553 0.486258,-0.6954004 0.486258,-1.1545862 0,-0.4647346 -0.153656,-0.8253288 -0.495269,-1.1622607 -0.333405,-0.3288481 -0.691228,-0.47774842 -1.148048,-0.47774842 -0.455313,0 -0.825485,0.15541722 -1.156844,0.48571242 -0.357667,0.3565124 -0.507063,0.7443818 -0.480705,1.2480281 0.02126,0.4062124 0.155473,0.7207194 0.434697,1.0186198 0.257758,0.2749965 0.574363,0.4504434 0.914778,0.5069397 0.141092,0.023453 0.416866,0.024251 0.556417,0.002 z"
			/>
	</symbol>

	<symbol id="masage_icon" viewBox="0 0 7.1437499 5.8208335">
		<path 
			d="m6.0733074 296.70494c-.31923-.0657-.75314-.24431-1.02538-.42215l-.11342-.0741-.11457.0175c-.6004903.0917-1.2524403.0221-1.7884303-.19081-.14065-.0559-.50065-.24293-.4865-.25279.002-.001.0758.002.16391.009.38851.0272.92802-.0436 1.34336-.17625.9335303-.29815 1.6223003-.93726 1.8226403-1.69122.0504-.1898.0624-.28757.0615-.50188-.00089-.20284-.0193-.35106-.0603-.48574-.0102-.0333-.0165-.0626-.014-.065.002-.002.0804.0463.17332.10823.19591.1307.40873.32704.5308.4897.15982.21294.27049.46518.30272.68993.0208.14539.009.42435-.0243.5552-.10279.40813-.38472.77566-.81439 1.06164-.0644.0428-.1194.0798-.12225.0821-.003.002.0204.0557.0517.11878.0632.1274.17431.27709.33361.44962.11124.12049.13194.16403.10796.22711-.0354.093-.0868.10111-.32789.0515zm-5.25340024-.92367c-.0486-.0205-.0766-.063-.0766-.11646 0-.0532.0137-.0741.14125999-.21566.18185005-.20178.26103005-.31235.32554005-.45463l.0371-.0819-.1194799-.0776c-.31180996-.2025-.55100996-.4602-.70160996-.75588-.36864003-.72379-.0934-1.53871.69372996-2.05375.8770899-.57393 2.1834099-.64888 3.1669499-.18171.28426.13502.4981403.28553.6983703.49144.23641.24314.36546.46482.44251.76015.0252.0965.0289.13966.0289.33274 0 .1928-.004.23634-.0289.33274-.0944.36301-.302.67143-.63312.94069-.3605103.29317-.9109503.51516-1.4572103.58769-.30732.0408-.71844.0363-1.01627-.0111l-.0995-.0158-.12609.0795c-.33273.20982-.77813.38208-1.13244987.43798-.086.0136-.11383999.0138-.14321999.002zm1.14909994-.92704.13508-.0922.14837.0265c.4325.0773.77432.0808 1.15892.0119.51314-.092.95625-.31302 1.2549603-.62606.23245-.24361.34187-.51184.32444-.79537-.009-.15139-.0322-.24105-.0952-.3722-.24036-.50073-.9043803-.88769-1.6791403-.97854-.19433-.0228-.70757-.008-.8834.0249-.71601.13537-1.2713199.48971-1.49801994.95585-.0727.14955-.0953.25065-.0951.42517.00019.11754.006.16065.0333.25264.0567.19008.16678999.3651.33343004.52992.12633.12495.2653399.22315.5263799.37184.11386.0649.20703.11927.20703.1209 0 .002-.0171.0439-.038.094s-.0488.118-.062.15096l-.024.0599.0589-.034c.0324-.0187.11969-.0755.19398-.1262z" stroke-width=".012324" transform="translate(0 -291.17916)"
			/>
	</symbol>
	<symbol id="human_icon" viewBox="0 0 3.9687499 4.4979167">
		<path d="m.96172022 296.33042c-.17783613-.0365-.32733383-.20344-.36987335-.41286-.0118883-.0585-.0131588-.2477-.002496-.37024.0302657-.34782.14197728-.63966.29643825-.77445.10577567-.0922.21507138-.13873.35922788-.15258l.04771-.005.040796.0334c.2514935.20619.5580715.27749.8880138.20653.1475603-.0318.2853038-.10029.4151428-.20679l.04111-.0337.066403.008c.2060932.0238.3663544.13117.4673664.31294.1215993.21879.1835369.52032.174552.84975-.0027.0985-.00661.13821-.017189.17401-.030595.10358-.084243.19163-.1591885.26131-.055553.0517-.1056556.0823-.1664019.10188l-.045711.0147-.9950961.00095c-.8361607.00093-1.0023965-.00032-1.04080675-.008zm.91773848-1.58824c-.141349-.0149-.2800087-.0672-.397335-.14962-.06057-.0425-.1557814-.13809-.2014653-.20214-.050946-.0715-.1003378-.1784-.1186622-.25703-.015615-.0669-.021448-.22978-.010713-.29898.039545-.25492.2142392-.47784.4682011-.59745.1121614-.0529.2146945-.0734.3654634-.0734.198641 0 .3477829.0445.4951896.14805.1859489.13052.3065442.31699.3385872.52355.012115.0782.00473.2388-.014315.31127-.071217.27103-.3116965.50396-.5918153.57324-.1119046.0277-.2171535.0348-.3331322.0226z"  stroke-width=".006828" transform="translate(0 -292.50208)"/>
	</symbol>

	<symbol id="facebook_icon" viewBox="0 0 4.4979165 8.2020835">
		<path d="m1.4362263 295.00062v-1.73482h-.58081969-.58081985v-.65599c0-.3608-.00418-.66687-.009287-.68017-.008361-.0218.0488843-.0242.57943065-.0242h.58870969l.00725-.65343c.00778-.70184.015134-.78065.096562-1.03554.099639-.31187.270221-.56161.5119306-.74949.3532205-.27455.7575796-.37416 1.4275558-.35167.299862.0101.6409011.033.7145609.048l.042034.009v.60254.60253l-.4394375.00026c-.4807096.00027-.5964592.0138-.7151722.0833-.088307.0518-.1519895.1323-.1930712.2442-.032306.088-.034242.11959-.039624.64659l-.00566.55407h.6738444.6738444l-.0077.0344c-.00696.0311-.1762967 1.29622-.1762967 1.31714 0 .005-.2613707.009-.5808198.009h-.580821v1.73426 1.73482h-.7030994-.7030967z"  stroke-width=".015285" transform="translate(0 -288.79792)"/>
	</symbol>

	<symbol id="plus_icon" viewBox="0 0 7.6729 8.2021">
		<path d="m5.9764 4.9625.0005327-1.0116h-1.0299v-.38852h1.0309l-.0008864-1.0399h.38858v1.0399h1.0326l.0008865.38852h-1.0335v1.0116zm-2.4441-1.8101c.26645-.34587.19576-.97746.079185-1.3679-.17806-.59637-.561-1.1165-1.1265-1.1132-.25889.00097-.47237.0835-.65207.28316-.26192.29104-.33839.61593-.19558 1.2446.14282.62873.39287 1.0989 1.0199 1.2533.29379.0724.71463-.0918.87504-.29997zm.7236 3.0798c-.085261-.56616-.50465-.80071-1.0445-1.1771-.78668.008-1.5373.084-1.8478.48723-.17779.19315-.30412.54491-.24939.81978.1288.64685.71907.88331 1.2592.98312.82822.15306 2.0243-.17139 1.8825-1.113zm-2.2998 1.5506c-.44883-.0427-.93202-.18026-1.2615-.48806-.24642-.23023-.45106-.55075-.42823-.91664.052352-.8388.54147-1.138 1.305-1.4008.38554-.13269.65759-.15685 1.0266-.18741.09371-.008.23402-.007.24303-.0105.026472-.009.018962-.0469-.019661-.0973-.19781-.25596-.33378-.54604-.17215-.86906.050178-.0987.029163-.10959-.18989-.0981-.56075.0647-1.0738-.0883-1.4458-.66264-.38098-.58813-.36208-1.139-.00777-1.7171.3814-.62235 1.1448-.89479 1.524-.91608.37918-.0213 2.471-.0339 2.4378-.0148l-.4856.27915h-.28659c-.24925 0-.28763.002-.29455.0207-.00438.0116-.00796.0236-.00796.0274.37613.29159.61265.71748.66234 1.0922.049689.37477-.036243.72341-.23417 1.0422-.21605.34798-.60861.4678-.79049.78073-.047699.0821-.063132.17607-.062957.25301-.00762.19626.15339.32743.29702.44377.31622.25612.67545.49978.90487.833.19214.28476.27487.60029.23034.9811-.055896.47791-.40622.9515-.92521 1.2592-.57994.37226-1.3378.43036-2.0184.36549z"  stroke-width=".010562"/>
	
	</symbol>
	<symbol id="twiter_icon" viewBox="0 0 7.9375 6.35">
		<path transform="translate(0 -290.65)" d="m2.1820633 296.71774c-.485081-.0433-1.074756-.20601-1.47345298-.40664-.08567-.0431-.444041-.24305-.444027-.24773.000004-.001.164931-.003.366504-.003.42293498 0 .60865698-.0271.95173298-.13909.296494-.0968.582188-.24281.813495-.41589l.09973-.0746-.163922-.0237c-.195671-.0282-.306902-.0629-.48091-.14982-.306191-.15294-.569381-.42833-.707204-.73997-.0244-.0552-.04436-.10719-.04436-.11561 0-.008.102296-.0144.227325-.0134.326883.003.511048-.0365.343718-.0732-.114006-.025-.348227-.1349-.464499-.21787-.24231398-.17291-.46503098-.45876-.55259298-.70924-.04889-.13986-.09211-.35839-.09211-.46576v-.0822l.06959.0349c.120219.0604.286902.11026.43897298.13141.08068.0112.148746.0182.15125.0155.0025-.003-.05043-.0508-.117625-.10692-.22707798-.18969-.41007098-.47943-.48988098-.77563-.02947-.10936-.03843-.19746-.03812-.37491.000442-.26017.0342-.42249.133319-.6411l.05772-.1273.11387.12904c.70185398.79533 1.69302098 1.31599 2.72801198 1.43303.150044.017.27734.0263.282878.0208.0055-.006.0011-.0804-.0099-.16638-.09336-.72906.373157-1.42851 1.09116-1.63596.210681-.0609.618308-.0604.831203.001.197267.0569.403932.16934.559508.30443.122784.10662.129878.11.208552.0995.136579-.0183.519899-.15557.702072-.25148.0947-.0498.172179-.0814.172179-.0702s-.03333.0893-.07407.17346c-.107874.22287-.262158.40274-.501555.58473l-.0637.0484.126894-.017c.138703-.0186.482257-.11491.639699-.17936l.09944-.0407-.09786.12579c-.126441.16251-.403151.44614-.551027.56479l-.115982.0931-.000016.17933c-.00014 1.23994-.560595 2.47365-1.512099 3.32833-.81307.73034-2.016549 1.1036-3.213866.99681z"  stroke-width=".018557"/>
	</symbol>
	<symbol id="youtube_icon" viewBox="0 0 6.8792 8.2021">
		 <g>
  <path transform="matrix(.26253 0 0 .26123 -.091271 -.008177)" d="m5.5625 14.965c-2.3232 0-4.207 2.4095-4.207 5.3809v4.6895c0 2.9709 1.8838 5.3809 4.207 5.3809h15.773c2.3231 0 4.207-2.4095 4.207-5.3809v-4.6895c0-2.9714-1.8837-5.3809-4.207-5.3809zm-1.9434 2.0684h4.4258v1.4551h-1.4863v9.6895h-1.5176v-9.6895h-1.4219zm10.074 2e-3h1.4219v3.625c0.55511-0.6349 0.92892-0.88672 1.3535-0.88672 0.32669 0 0.68638 0.20148 0.84961 0.46875 0.1797 0.30062 0.22852 0.60098 0.22852 1.4863v4.6113c0 0.86867-0.04881 1.1702-0.22852 1.4707-0.16322 0.28425-0.52219 0.48438-0.86523 0.48438-0.4246 0-0.78278-0.25077-1.3379-0.90234v0.78516h-1.4219zm7.3145 2.7383c1.1756 0 1.9102 0.78594 1.9102 2.0723v2.4395h-2.4648v1.8203c0 0.6017 0.14791 0.85156 0.52344 0.85156 0.1797 0 0.34239-0.09992 0.42383-0.25 0.08167-0.15039 0.09766-0.33415 0.09766-0.93555v-0.50195h1.4199v0.30078c0.01636 0.21724 0.01758 0.36764 0.01758 0.45117 0 1.4701-0.70227 2.2734-1.9922 2.2734-1.2245 0-1.9102-0.83628-1.9102-2.3398v-3.8594c0-1.5703 0.65221-2.3223 1.9746-2.3223zm-12.701 0.10152h1.4199v6.4648c0 0.41781 0.11374 0.61719 0.375 0.61719 0.17958 0 0.34287-0.08369 0.63672-0.33398v-6.748h1.4199v8.3027h-1.3047l-0.11524-0.71875c-0.5877 0.61807-0.92977 0.83594-1.3379 0.83594-0.34293 0-0.70201-0.20118-0.86523-0.46875-0.17958-0.28395-0.22852-0.58521-0.22852-1.4375zm7.4453 1.2363c-0.1797 0-0.34298 0.08354-0.63672 0.33398v5.1777c0.29397 0.25059 0.45714 0.33398 0.63672 0.33398 0.26114 0 0.375-0.19938 0.375-0.61719v-4.6113c0-0.43418-0.11386-0.61719-0.375-0.61719zm5.2246 0c-0.32645 0-0.52344 0.21546-0.52344 0.59961v1.4043h1.0449v-1.4043c0-0.38415-0.1948-0.59961-0.52148-0.59961z" stroke-width=".13405"/>
  <g transform="matrix(.03112 0 0 .039603 -12.149 -13.745)" enable-background="new">
   <path d="m433.28 353.76h15.304l1.97 7.879 1.667 5.818 1.364 5.697 1.364 5.939 1.061 4.97h0.606l1.061-4.97 1.212-5.939 1.515-5.697 1.515-5.818 2.121-7.879h14.849l-15.758 47.274v33.577h-14.091v-33.577z"/>
   <path d="m497.83 373.64c11.97 0 18.031 5.697 18.031 16.97v27.88c0 11.273-6.061 16.97-18.031 16.97s-18.031-5.697-18.031-16.97v-27.88c0-11.272 6.06-16.97 18.031-16.97zm0 9.698c-3.182 0-4.849 1.939-4.849 5.576v31.272c0 3.515 1.818 5.576 4.849 5.576s4.849-2.061 4.849-5.576v-31.272c-1e-3 -3.637-1.819-5.576-4.849-5.576z"/>
   <path d="m553.43 434.61-1.061-5.212c-5.455 4.485-8.638 6.061-12.426 6.061-3.182 0-6.515-1.455-8.029-3.394-1.668-2.061-2.121-4.243-2.121-10.425v-47.274h13.182v46.911c0 3.03 1.061 4.485 3.484 4.485 1.668 0 3.183-0.606 5.91-2.424v-48.972h13.183v60.244z"/>
  </g>
 </g>
	</symbol>


	<symbol id="geo_icon" viewBox="0 0 2.6458332 3.7041668">
		<path d="m1.1368843 296.98674c-.052499-.0173-.1073613-.054-.13969759-.0935-.0174884-.0212-.1686447-.33439-.47448898-.98266-.24684849-.52324-.45613969-.97057-.46508977-.99407-.04656552-.12226-.06191283-.23855-.05660701-.42891.0043052-.15577.01564983-.22501.05752623-.35232.11435432-.3476.41947835-.65526.76791344-.77429.25107678-.0857.54030558-.0871.79713148-.003.3669729.1191.6853184.44564.7924598.81285.03593.12315.046729.20733.046821.36505.0001047.16633-.010126.24222-.047264.35113-.026274.077-.8984121 1.93357-.9325485 1.98515-.027099.041-.074968.0791-.1322358.10558-.055293.0254-.152505.0299-.2139199.009zm.2492327-1.85676c.1081881-.028.2051792-.0849.2866584-.16817.1302812-.13304.182982-.27479.1735723-.46691-.00466-.0947-.016091-.14484-.049765-.21785-.123771-.26838-.4064815-.41076-.6966666-.35087-.14268342.0294-.2750624.11572-.36889043.24046-.10773369.14321-.14298477.32681-.0990768.516.0540821.233.2614523.42249.50411783.46064.062832.009.1859781.004.2500458-.0133z"  stroke-width=".006953" transform="translate(0 -293.29582)"/>
	</symbol>


	<symbol id="arrow_icon" viewBox="0 0 3.7041666 1.5875">
		<path d="m2.6989094 296.99323c-.008-.003-.0204-.0139-.0282-.0238-.0139-.0176-.0142-.0228-.0142-.25813v-.24016l-1.3015549-.00024c-1.39926534-.00025-1.32246505.002-1.34204512-.0336-.01280005-.0229-.01280005-.43796 0-.46086.01960007-.0351-.05720022-.0333 1.34204512-.0336l1.3015549-.00023.0001-.23941c.00008-.17787.002-.24359.009-.25567.01-.0197.0508-.0365.0744-.0306.0164.004.802873.71107.8318531.74776.0179.0226.0174.0482-.00096.0738-.011.0151-.7094226.65925-.805093.74252-.0163.0142-.0475.0198-.0661.012z" transform="translate(0 -295.4125)"/>
	</symbol>


	<symbol id="xxx_icon" viewBox="0 0 4.4979165 8.2020835">
		<path/>
	</symbol>


</svg>

