<?xml version="1.0" encoding="UTF-8" standalone="no"?>
<svg
   xmlns:dc="http://purl.org/dc/elements/1.1/"
   xmlns:cc="http://creativecommons.org/ns#"
   xmlns:rdf="http://www.w3.org/1999/02/22-rdf-syntax-ns#"
   xmlns:svg="http://www.w3.org/2000/svg"
   xmlns="http://www.w3.org/2000/svg"
   xmlns:xlink="http://www.w3.org/1999/xlink"
   id="svg61"
   viewBox="0 0 450 130"
   version="1.1"
   text-rendering="geometricPrecision"
   shape-rendering="geometricPrecision"
   image-rendering="optimizeQuality"
   fill-rule="evenodd"
   clip-rule="evenodd">
  <metadata
     id="metadata65">
    <rdf:RDF>
      <cc:Work
         rdf:about="">
        <dc:format>image/svg+xml</dc:format>
        <dc:type
           rdf:resource="http://purl.org/dc/dcmitype/StillImage" />
        <dc:title></dc:title>
      </cc:Work>
    </rdf:RDF>
  </metadata>
  <defs
     id="defs10">
    <style
       id="style2"
       type="text/css"><![CDATA[
    .str0 {stroke:#858589;stroke-width:0.35315;stroke-linecap:round;stroke-linejoin:round}
    .str1 {stroke:white;stroke-width:0.354331;stroke-linecap:round;stroke-linejoin:round}
    .fil4 {fill:none}
    .fil6 {fill:black}
    .fil5 {fill:#3FAD5D}
    .fil7 {fill:#92C440}
    .fil0 {fill:#EFF0F0}
    .fil3 {fill:white}
    .fil8 {fill:#4E5B6A;fill-rule:nonzero}
    .fil1 {fill:url(#id0)}
    .fil2 {fill:url(#id1)}
   ]]></style>
    <linearGradient
       gradientUnits="userSpaceOnUse"
       y2="65.156"
       y1="65.156"
       x2="67.585"
       x1="58.683"
       id="id0">
      <stop
         id="stop4"
         offset="0"
         stop-color="#D1D2D3" />
      <stop
         id="stop6"
         offset="1"
         stop-opacity="0"
         stop-color="#E6E7E8" />
    </linearGradient>
    <linearGradient
       xlink:href="#id0"
       gradientUnits="userSpaceOnUse"
       y2="65.156"
       y1="65.156"
       x2="67.585"
       x1="58.683"
       id="id1" />
  </defs>
  <filter
     color-interpolation-filters="sRGB"
     height="1.0117"
     width="1.0123"
     y="-.005847"
     x="-.006161"
     id="b">
    <feGaussianBlur
       id="feGaussianBlur12"
       stdDeviation=".036351547" />
  </filter>
  <filter
     color-interpolation-filters="sRGB"
     height="1.024"
     width="1.024"
     y="-.012"
     x="-.012"
     id="c">
    <feGaussianBlur
       id="feGaussianBlur15"
       stdDeviation=".036248429" />
  </filter>
  <filter
     color-interpolation-filters="sRGB"
     height="1.36"
     width="1.36"
     y="-.18"
     x="-.18"
     id="d">
    <feGaussianBlur
       id="feGaussianBlur18"
       stdDeviation=".35429918" />
  </filter>
  <filter
     color-interpolation-filters="sRGB"
     height="1.0238"
     width="1.0242"
     y="-.011908"
     x="-.012094"
     id="e">
    <feGaussianBlur
       id="feGaussianBlur21"
       stdDeviation=".14411911" />
  </filter>
  <filter
     color-interpolation-filters="sRGB"
     height="1.1022"
     width="1.0556"
     y="-.051112"
     x="-.027785"
     id="h">
    <feGaussianBlur
       id="feGaussianBlur24"
       stdDeviation=".22417355" />
  </filter>
  <path
     id="path27"
     d="m64 0s-18 1-27 4-15 7-19 14c-8 14-17 45-17 45s6 2 13 3c6 1 13 3 20 3l30 61v-130zm0 0z"
     class="fil0" />
  <path
     id="path29"
     d="m64 0c1 0 18 1 27 4s16 7 20 14c8 14 17 45 17 45s-6 2-14 3c-5 1-12 3-19 3l-31 61v-130zm0 0z"
     class="fil0" />
  <path
     id="path31"
     d="m64 0s-18 1-27 4-15 7-19 14c-8 14-17 45-17 45s6 2 13 3c6 1 13 3 20 3l30 61m0-130z"
     class="fil1 str0" />
  <path
     id="path33"
     d="m64 0c1 0 18 1 27 4s16 7 20 14c8 14 17 45 17 45s-6 2-14 3c-5 1-12 3-19 3l-31 61m0-130z"
     class="fil2 str0" />
  <path
     id="path35"
     d="m64 13h20c13 0 24 11 24 23 0 13-11 24-24 24-8 0-16-4-20-11v-36zm0 0z"
     class="fil3" />
  <path
     id="path37"
     d="m64 13h20c13 0 24 11 24 23 0 13-11 24-24 24-8 0-16-4-20-11m0-36z"
     class="fil4 str1" />
  <path
     id="path39"
     d="m64 13h-20c-13 0-23 11-23 23 0 13 10 24 23 24 9 0 16-4 20-11v-36zm0 0z"
     class="fil3" />
  <path
     id="path41"
     d="m64 13h-20c-13 0-23 11-23 23 0 13 10 24 23 24 9 0 16-4 20-11m0-36z"
     class="fil4 str1" />
  <path
     id="path43"
     d="m64 13h20c13 0 24 11 24 23 0 13-11 24-24 24-8 0-16-4-20-11v-36zm0 0z"
     class="fil3" />
  <path
     id="path45"
     d="m64 13h20c13 0 24 11 24 23 0 13-11 24-24 24-8 0-16-4-20-11m0-36z"
     class="fil4 str1" />
  <path
     id="path47"
     d="m84 59c13 0 22-10 22-22 0-13-9-23-21-23-6 0-11 2-15 5l-4-5v-5c7-6 17-7 25-5 8 1 16 6 21 14 7 14 17 45 17 45s-27 7-41 7c-4 0-8 0-11-1-4-2-7-4-9-7-3-4-4-13-4-13 5 6 12 10 20 10z"
     class="fil5" />
  <circle
     id="circle49"
     r="16"
     cy="36"
     cx="84"
     class="fil5" />
  <circle
     id="circle51"
     r="9"
     cy="37"
     cx="84"
     class="fil6" />
  <path
     id="path53"
     d="m44 59c-12 0-22-10-22-22 0-13 10-23 22-23 5 0 11 2 14 5 0 0 4-5 5-5v-5c-7-6-17-7-25-5-8 1-17 6-21 14-8 14-17 45-17 45s27 7 41 7c3 0 7 0 11-1 3-2 7-4 9-7 2-4 3-8 3-13-4 6-12 10-20 10z"
     class="fil7" />
  <circle
     id="circle55"
     r="16"
     cy="36"
     cx="45"
     class="fil7" />
  <circle
     id="circle57"
     r="9"
     cy="37"
     cx="45"
     class="fil6" />
  <path
     id="path59"
     d="m184 76v-24c-1-2-6-5-10-5-13 0-14 21-8 29 4 6 13 6 18 0zm0-58h11v65l2 6h-9l-1-4c-11 11-36 5-36-21 0-27 20-31 33-22v-24zm53 20h12c0 15-1 37 2 51h-11l-1-5c-13 9-32 11-32-11v-35h12c0 7-1 35 1 40 3 5 12 1 17-3v-37zm23-20v71h12v-36c6-6 18-11 18 4v32h12v-39c-3-16-19-15-30-7v-25h-12zm86 46c0-12-4-18-12-18-9 0-13 6-13 18s4 18 13 18c8 0 12-6 12-18zm-24-24c12-5 30-3 35 14 4 15 0 36-23 36-31 0-31-42-12-50zm79 24c0-12-4-18-12-18-9 0-13 6-13 18s4 18 13 18c8 0 12-6 12-18zm-24-24c12-5 30-3 35 14 4 15-1 36-23 36-31 0-31-42-12-50zm47-14h12v12h12v8h-12c0 35-3 39 12 33l2 8c-14 7-26 1-26-8v-33h-6v-8h6v-12z"
     class="fil8" />
</svg>
