<?xml version="1.0" encoding="UTF-8" standalone="no"?>
<svg
   xmlns:dc="http://purl.org/dc/elements/1.1/"
   xmlns:cc="http://creativecommons.org/ns#"
   xmlns:rdf="http://www.w3.org/1999/02/22-rdf-syntax-ns#"
   xmlns:svg="http://www.w3.org/2000/svg"
   xmlns="http://www.w3.org/2000/svg"
   id="svg4"
   viewBox="0 0 20 20"
   style="clip-rule:evenodd;fill-rule:evenodd;image-rendering:optimizeQuality;shape-rendering:geometricPrecision;text-rendering:geometricPrecision"
   version="1.1"
   height="20"
   width="20"
   xml:space="preserve"><metadata
   id="metadata10"><rdf:RDF><cc:Work
       rdf:about=""><dc:format>image/svg+xml</dc:format><dc:type
         rdf:resource="http://purl.org/dc/dcmitype/StillImage" /><dc:title></dc:title></cc:Work></rdf:RDF></metadata><defs
   id="defs8" />
 <path
   id="path2"
   d="m 19.045887,291.70979 a 0.89041205,0.88649578 0 0 0 -0.201494,0.0302 L 6.4951902,294.99023 A 0.89041205,0.88649578 0 0 0 5.833181,295.8441 v 9.31892 c -0.086532,0 -0.1730645,-0.0113 -0.2591168,-0.004 -0.8086453,0.0601 -1.7146596,0.38131 -2.6338879,0.93331 -0.9192089,0.55208 -1.6857526,1.23568 -2.22267715,1.98388 -0.53691547,0.74819 -0.93522738,1.70978 -0.58599112,2.59442 0.34922453,0.88463 1.20841687,1.08778 2.01706217,1.02788 0.8086359,-0.0601 1.7167399,-0.38128 2.6359296,-0.93332 0.9192184,-0.55204 1.6836921,-1.2336 2.2206261,-1.98179 0.5228148,-0.72855 0.9108233,-1.65937 0.6086785,-2.52454 v -5.97823 l 10.5663876,-2.77946 v 4.57417 c -0.109712,-0.004 -0.219715,-0.0151 -0.328951,-0.008 -0.808646,0.0601 -1.714698,0.38332 -2.633917,0.93536 -0.919219,0.55207 -1.685791,1.2336 -2.22263,1.98179 -0.536934,0.74824 -0.937345,1.70979 -0.588071,2.59442 0.349179,0.88464 1.208388,1.08987 2.017034,1.02996 0.808645,-0.0601 1.7188,-0.38332 2.638019,-0.93536 0.919219,-0.55207 1.683692,-1.2336 2.220626,-1.98183 0.472728,-0.65866 0.837934,-1.48233 0.680613,-2.27369 v -10.82307 a 0.89041205,0.88649578 0 0 0 -0.917027,-0.88607 z m -0.865696,2.03732 v 1.92011 l -10.5663874,2.78151 v -1.92219 z m -0.388582,10.17211 c 0.488661,-0.0378 0.596468,0.11981 0.579867,0.0778 -0.01659,-0.0419 0.01602,0.16063 -0.30844,0.61263 -0.324469,0.45222 -0.915021,1.00607 -1.642858,1.44317 -0.72784,0.43714 -1.444038,0.66898 -1.932793,0.70515 -0.48866,0.0378 -0.59847,-0.12019 -0.581869,-0.0782 0.01659,0.0419 -0.01603,-0.16063 0.308439,-0.61262 0.324469,-0.45215 0.915021,-1.00604 1.642859,-1.44314 0.727837,-0.43714 1.446136,-0.66897 1.934794,-0.70514 z m -12.2771729,3.08779 c 0.4887552,-0.0378 0.5964665,0.12246 0.5798664,0.0801 -0.016592,-0.0419 0.018142,0.16063 -0.306342,0.61266 -0.3245631,0.45218 -0.9150205,1.00604 -1.6428584,1.44318 -0.7278761,0.4371 -1.4461548,0.66893 -1.9348526,0.7051 -0.4886982,0.0378 -0.5984893,-0.12018 -0.5818794,-0.0782 0.01663,0.0423 -0.016063,-0.16252 0.3084208,-0.61467 0.3244799,-0.45214 0.915002,-1.00395 1.6428399,-1.44113 0.7278473,-0.4371 1.4461453,-0.67098 1.9348049,-0.70719 z" />
<g
   transform="translate(-13.338983,-291.70832)"
   id="g828"
   style="clip-rule:evenodd;fill-rule:evenodd;image-rendering:optimizeQuality;shape-rendering:geometricPrecision;text-rendering:geometricPrecision"><path
     d="m 32.38487,291.70979 c -0.0681,0.002 -0.135711,0.0125 -0.201494,0.0302 l -12.349203,3.25024 c -0.389217,0.10284 -0.660662,0.45295 -0.662009,0.85387 v 9.31892 c -0.08653,0 -0.173064,-0.0113 -0.259117,-0.004 -0.808645,0.0601 -1.714659,0.38131 -2.633888,0.93331 -0.919209,0.55208 -1.685752,1.23568 -2.222677,1.98388 -0.536915,0.74819 -0.935227,1.70978 -0.585991,2.59442 0.349225,0.88463 1.208417,1.08778 2.017062,1.02788 0.808636,-0.0601 1.71674,-0.38128 2.63593,-0.93332 0.919218,-0.55204 1.683692,-1.2336 2.220626,-1.98179 0.522815,-0.72855 0.910823,-1.65937 0.608678,-2.52454 v -5.97823 l 10.566388,-2.77946 v 4.57417 c -0.109712,-0.004 -0.219715,-0.0151 -0.328951,-0.008 -0.808646,0.0601 -1.714698,0.38332 -2.633917,0.93536 -0.919219,0.55207 -1.685791,1.2336 -2.22263,1.98179 -0.536934,0.74824 -0.937345,1.70979 -0.588071,2.59442 0.349179,0.88464 1.208388,1.08987 2.017034,1.02996 0.808645,-0.0601 1.7188,-0.38332 2.638019,-0.93536 0.919219,-0.55207 1.683692,-1.2336 2.220626,-1.98183 0.472728,-0.65866 0.837934,-1.48233 0.680613,-2.27369 v -10.82307 c -1.7e-5,-0.49997 -0.415074,-0.90101 -0.917027,-0.88607 z m -0.865696,2.03732 v 1.92011 l -10.566387,2.78151 v -1.92219 z m 0.102897,10.15047 c 0.30873,0.40176 -0.765443,1.55655 -1.542502,2.08895 -0.77706,0.5324 -2.562563,1.1279 -2.83507,0.69324 -0.272507,-0.43466 0.798414,-1.53962 1.586696,-2.07786 0.788282,-0.53824 2.482146,-1.10608 2.790876,-0.70433 z m -12.188785,3.18953 c 0.36063,0.55689 -0.922271,1.47215 -1.684036,2.01165 -0.761764,0.53949 -2.444266,1.25956 -2.781897,0.67109 -0.337631,-0.58847 0.985366,-1.57448 1.752387,-2.12209 0.767021,-0.54762 2.352915,-1.11754 2.713546,-0.56065 z"
     id="path817" /></g></svg>