<?xml version="1.0" encoding="UTF-8" standalone="no"?>
<svg
   xmlns:dc="http://purl.org/dc/elements/1.1/"
   xmlns:cc="http://creativecommons.org/ns#"
   xmlns:rdf="http://www.w3.org/1999/02/22-rdf-syntax-ns#"
   xmlns:svg="http://www.w3.org/2000/svg"
   xmlns="http://www.w3.org/2000/svg"
   id="svg4"
   version="1.1"
   width="15"
   viewBox="0 0 3.9687499 7.6729169"
   height="29">
  <metadata
     id="metadata10">
    <rdf:RDF>
      <cc:Work
         rdf:about="">
        <dc:format>image/svg+xml</dc:format>
        <dc:type
           rdf:resource="http://purl.org/dc/dcmitype/StillImage" />
        <dc:title></dc:title>
      </cc:Work>
    </rdf:RDF>
  </metadata>
  <defs
     id="defs8" />
  <path
     style="fill:#ffffff;fill-opacity:1;stroke:none;stroke-width:0.011371"
     id="path2"
     d="m 1.2990698,7.5182226 c -0.0535,-0.0194 -0.10262,-0.0705 -0.11839,-0.12307 -0.0154,-0.0513 -0.0629,0.15292 0.56608,-2.43052 0.16507,-0.67798 0.29784,-1.23497 0.29505,-1.23776 -0.003,-0.003 -0.41089,0.0953 -0.90689,0.21803 -0.49599999,0.12271 -0.92115999,0.22303 -0.94481999,0.22293 -0.0604,-2.5e-4 -0.11049,-0.024 -0.15331,-0.0728 -0.0301,-0.0342 -0.03680000365,-0.0514 -0.03680000365,-0.0942 0,-0.0402 0.61076000365,-2.58205 0.86684000365,-3.60752001 0.0297,-0.11898 0.0415,-0.14825 0.0743,-0.18455 0.0222,-0.0246 0.0568,-0.0481 0.0805,-0.0547 0.0262,-0.007 0.32317,-0.0116 0.80261,-0.0116 0.73755,-4e-5 0.76254,6.4e-4 0.808,0.0226 0.0258,0.0125 0.0588,0.0388 0.0734,0.0585 0.0579,0.0782 0.0699,0.0378 -0.35114,1.17995001 -0.21305,0.57797 -0.38563,1.05258 -0.38351,1.0547 0.002,0.002 0.40912,-0.0961 0.90443,-0.21826 1.02156,-0.25195 0.95036,-0.24198 1.04579,-0.14655 0.0915,0.0915 0.19261,-0.14807 -1.16361,2.75635 -0.66143,1.4165 -1.21298,2.59012 -1.22567,2.60805 -0.0449,0.0634 -0.14953,0.0905 -0.23287,0.0603 z" />
</svg>
