<?xml version="1.0" encoding="UTF-8"?>
<!DOCTYPE svg PUBLIC "-//W3C//DTD SVG 1.1//EN" "http://www.w3.org/Graphics/SVG/1.1/DTD/svg11.dtd">
<!-- Creator: CorelDRAW X8 -->
<svg xmlns="http://www.w3.org/2000/svg" xml:space="preserve" width="100px" height="79px" version="1.1" style="shape-rendering:geometricPrecision; text-rendering:geometricPrecision; image-rendering:optimizeQuality; fill-rule:evenodd; clip-rule:evenodd"
viewBox="0 0 100 79"
 xmlns:xlink="http://www.w3.org/1999/xlink"
 xmlns:dc="http://purl.org/dc/elements/1.1/"
 xmlns:cc="http://creativecommons.org/ns#"
 xmlns:rdf="http://www.w3.org/1999/02/22-rdf-syntax-ns#"
 xmlns:svg="http://www.w3.org/2000/svg">
 <defs>
  <style type="text/css">
   <![CDATA[
    .fil0 {fill:black;fill-rule:nonzero}
   ]]>
  </style>
 </defs>
 <g id="Слой_x0020_1">
  <metadata id="CorelCorpID_0Corel-Layer"/>
  <g id="g6">
   <path id="path2" class="fil0" d="M50 0c0,0 0,0 0,0 0,0 0,0 0,0 -1,1 -2,1 -3,2l-45 35c-1,1 -2,2 -2,3 0,3 2,5 4,5 1,0 2,-1 3,-1l6 -5 0 17 0 19c0,2 2,4 4,4 0,0 0,0 0,0l23 0c0,0 0,0 0,0 2,0 4,-2 4,-4l0 -25 6 0 6 0 0 25c0,2 2,4 4,4l23 0c0,0 0,0 0,0 2,0 4,-2 4,-4l0 -36 6 5c1,0 2,1 3,1 2,0 4,-2 4,-5 0,-1 -1,-2 -2,-3l-45 -35c-1,-1 -2,-2 -3,-2 0,0 0,0 0,0l0 0zm0 10l29 23 0 38 -15 0 0 -25c0,-2 -2,-4 -4,-4 0,0 0,0 0,0l-10 0 -10 0c0,0 0,0 0,0 -2,0 -4,2 -4,4l0 25 -15 0 0 -15 0 -23 29 -23z"/>
  </g>
 </g>
</svg>
