<?xml version="1.0" encoding="UTF-8" standalone="no"?>
<!-- Creator: CorelDRAW X8 -->

<svg
   xmlns:dc="http://purl.org/dc/elements/1.1/"
   xmlns:cc="http://creativecommons.org/ns#"
   xmlns:rdf="http://www.w3.org/1999/02/22-rdf-syntax-ns#"
   xmlns:svg="http://www.w3.org/2000/svg"
   xmlns="http://www.w3.org/2000/svg"
   xmlns:sodipodi="http://sodipodi.sourceforge.net/DTD/sodipodi-0.dtd"
   xmlns:inkscape="http://www.inkscape.org/namespaces/inkscape"
   xml:space="preserve"
   width="500"
   height="500"
   version="1.1"
   style="clip-rule:evenodd;fill-rule:evenodd;image-rendering:optimizeQuality;shape-rendering:geometricPrecision;text-rendering:geometricPrecision"
   viewBox="0 0 500 500"
   id="svg9"
   sodipodi:docname="81_icon.svg"
   inkscape:version="0.92.4 (5da689c313, 2019-01-14)"><metadata
   id="metadata13"><rdf:RDF><cc:Work
       rdf:about=""><dc:format>image/svg+xml</dc:format><dc:type
         rdf:resource="http://purl.org/dc/dcmitype/StillImage" /><dc:title></dc:title></cc:Work></rdf:RDF></metadata><sodipodi:namedview
   pagecolor="#ffffff"
   bordercolor="#666666"
   borderopacity="1"
   objecttolerance="10"
   gridtolerance="10"
   guidetolerance="10"
   inkscape:pageopacity="0"
   inkscape:pageshadow="2"
   inkscape:window-width="1990"
   inkscape:window-height="1071"
   id="namedview11"
   showgrid="false"
   inkscape:pagecheckerboard="true"
   inkscape:zoom="0.236"
   inkscape:cx="-547.33405"
   inkscape:cy="127.79741"
   inkscape:window-x="0"
   inkscape:window-y="0"
   inkscape:window-maximized="0"
   inkscape:current-layer="svg9"
   fit-margin-top="0"
   fit-margin-left="0"
   fit-margin-right="0"
   fit-margin-bottom="0" />
 <defs
   id="defs4">
  <style
   type="text/css"
   id="style2">
   <![CDATA[
    .fil0 {fill:black}
   ]]>
  </style>
 </defs>
 <g
   id="Слой_x0020_1"
   transform="matrix(1.0003546,0,0,0.99976152,-0.14046937,6.1631215e-6)">
  <metadata
   id="CorelCorpID_0Corel-Layer" />
  <path
   id="path817"
   class="fil0"
   d="m 152,384 c 9,14 -23,37 -42,51 -19,13 -61,31 -69,17 -9,-15 24,-40 44,-54 19,-13 58,-27 67,-14 z m 305,-79 c 8,10 -19,39 -38,52 -20,13 -65,28 -71,17 -7,-11 20,-38 39,-52 20,-13 62,-27 70,-17 z M 455,51 V 99 L 190,169 V 120 Z M 476,0 c -2,0 -3,0 -5,1 L 162,82 c -9,3 -16,11 -16,21 v 233 c -2,0 -4,0 -7,0 -20,2 -43,10 -65,24 -23,13 -43,30 -56,49 -13,19 -23,43 -15,65 9,22 30,27 51,26 20,-2 43,-10 66,-24 23,-13 42,-30 55,-49 13,-18 23,-42 15,-63 V 214 l 265,-69 v 114 c -3,0 -6,0 -9,0 -20,1 -43,10 -66,23 -23,14 -42,31 -55,50 -14,19 -24,43 -15,65 9,22 30,27 51,26 20,-2 43,-10 66,-24 23,-14 42,-31 55,-49 12,-17 21,-37 17,-57 V 22 C 499,10 489,0 476,0 Z"
   inkscape:connector-curvature="0"
   style="fill:#000000" />
 </g>
</svg>