<svg height="19" viewBox="0 0 5.02702 5.02702" width="19" xmlns="http://www.w3.org/2000/svg"><g fill="#fefefe" stroke="none" transform="matrix(.23749999 0 0 .23749999 -.383182 -64.78577)">
<path d="m17.648351 284.73532c-.968605.58427-1.776805 1.30703-2.342566 2.09892-.565766.79188-.985634 1.80869-.617651 2.74497.367991.93628 1.273033 1.1539 2.125121 1.09051.85209-.0634 1.809771-.40581 2.778376-.99008.968604-.58427 1.775134-1.30602 2.340897-2.09791.565765-.79188.987305-1.8097.619319-2.74598-.367988-.93627-1.274702-1.15289-2.126789-1.0895-.852091.0634-1.808103.40479-2.776707.98907zm.674432 1.71597c.766952-.46264 1.523466-.70782 2.038424-.74611.514954-.0383.629384.12743.611877.0829-.0175-.0445.01724.16928-.324674.64784-.341915.47858-.96426 1.06512-1.731212 1.52776-.766951.46263-1.523462.70782-2.03842.74612-.514954.0383-.629384-.12744-.61188-.0829.01751.0445-.01724-.16926.324677-.64783.341915-.47857.964257-1.06513 1.731208-1.52776z"/>
<path d="m4.7118311 288.00531c-.9686013.58428-1.7751269 1.30603-2.3408924 2.09792-.5657692.79188-.9873201 1.80971-.6193266 2.74598.3679972.93627 1.2747053 1.15289 2.126796 1.0895.8520858-.0634 1.808098-.4048 2.7767029-.98907.9686049-.58428 1.775139-1.30603 2.3408977-2.09791.5657667-.79188.9873056-1.8097.6193195-2.74599-.3679773-.93627-1.2746999-1.15288-2.1267889-1.08949-.8520961.0634-1.8080947.40479-2.7767082.98906zm.6744324 1.71597c.76696-.46263 1.5227572-.70962 2.0377051-.74793.5149601-.0383.6301024.12926.6125964.0847-.017503-.0445.017245.16927-.3246764.64784-.3419177.47858-.9642587 1.06512-1.7312101 1.52775-.7669513.46264-1.5234668.70783-2.0384183.74612-.5149564.0383-.6293881-.12743-.6118849-.0829.017507.0446-.017953-.17108.3239649-.64966.3419127-.47856.9649756-1.06329 1.7319233-1.52594z"/>
<path d="m21.470703 276.78516-13.0117186 3.43945.4785156 1.8125 13.013672-3.4375z"/>
<path d="m21.683594 272.7832a.93825233.93825233 0 0 0 -.212891.0293l-13.0117186 3.43945a.93825233.93825233 0 0 0 -.6992188.90625v11.78321h1.8769532v-11.06055l11.1347652-2.94141v10.73243h1.876954v-11.95118a.93825233.93825233 0 0 0 -.964844-.9375z"/>
</g>
</svg>