<?xml version="1.0" encoding="UTF-8"?>
<!DOCTYPE svg PUBLIC "-//W3C//DTD SVG 1.1//EN" "http://www.w3.org/Graphics/SVG/1.1/DTD/svg11.dtd">
<!-- Creator: CorelDRAW X8 -->
<svg xmlns="http://www.w3.org/2000/svg" xml:space="preserve" width="100px" height="100px" version="1.1" style="shape-rendering:geometricPrecision; text-rendering:geometricPrecision; image-rendering:optimizeQuality; fill-rule:evenodd; clip-rule:evenodd"
viewBox="0 0 100 100"
 xmlns:xlink="http://www.w3.org/1999/xlink"
 xmlns:dc="http://purl.org/dc/elements/1.1/"
 xmlns:cc="http://creativecommons.org/ns#"
 xmlns:rdf="http://www.w3.org/1999/02/22-rdf-syntax-ns#"
 xmlns:svg="http://www.w3.org/2000/svg"
 xmlns:sodipodi="http://sodipodi.sourceforge.net/DTD/sodipodi-0.dtd"
 xmlns:inkscape="http://www.inkscape.org/namespaces/inkscape"
 inkscape:version="0.92.4 (5da689c313, 2019-01-14)"
 sodipodi:docname="bus_icon.svg">
 <defs>
  <style type="text/css">
   <![CDATA[
    .fil0 {fill:black;fill-rule:nonzero}
   ]]>
  </style>
 </defs>
 <g id="Слой_x0020_1">
  <metadata id="CorelCorpID_0Corel-Layer"/>
  <sodipodi:namedview id="base" pagecolor="#ffffff" bordercolor="#666666" borderopacity="1.0" inkscape:pageopacity="0.0" inkscape:pageshadow="2" inkscape:zoom="2.8" inkscape:cx="99.992203" inkscape:cy="25.893706" inkscape:document-units="px" inkscape:current-layer="layer1" showgrid="false" units="px" inkscape:window-width="2560" inkscape:window-height="1361" inkscape:window-x="-9" inkscape:window-y="-9" inkscape:window-maximized="1" showguides="true"/>
  <g id="layer1" inkscape:label="Layer 1" inkscape:groupmode="layer">
   <path id="rect14" class="fil0" d="M67 0c18,0 33,14 33,31l0 34c0,0 0,0 0,0l0 18c0,3 -2,4 -4,4l-5 0 0 7c0,3 -3,6 -7,6l-14 0c-4,0 -7,-3 -7,-6l0 -7 -26 0 0 7c0,3 -3,6 -7,6l-14 0c-4,0 -7,-3 -7,-6l0 -7 -5 0c-2,0 -4,-1 -4,-4l0 -52c0,-17 15,-31 32,-31l35 0 0 0zm-34 8c-14,0 -25,10 -25,23l0 49c26,0 55,0 84,0 0,-17 0,-33 0,-49 0,-13 -11,-23 -24,-23l-35 0zm41 6c1,0 3,1 3,3 0,1 -2,3 -3,3l-48 0c-2,0 -3,-2 -3,-3 0,-2 1,-3 3,-3l48 0zm8 10c3,0 5,3 5,6l0 19c0,3 -2,5 -5,5l-64 0c-3,0 -6,-2 -6,-5l0 -19c0,-3 3,-6 6,-6l64 0zm-66 6l0 19c0,1 1,2 2,2l64 0c1,0 2,-1 2,-2l0 -19c0,-2 -1,-3 -2,-3l-64 0c-1,0 -2,1 -2,3zm61 34c0,3 -2,6 -5,6 -3,0 -6,-3 -6,-6 0,-3 3,-5 6,-5 3,0 5,2 5,5zm-43 1c0,3 -3,5 -6,5 -3,0 -6,-2 -6,-5 0,-3 3,-6 6,-6 3,0 6,3 6,6zm35 -1c0,2 1,3 3,3 1,0 3,-1 3,-3 0,-1 -2,-2 -3,-2 -2,0 -3,1 -3,2zm-44 1c0,1 1,3 3,3 2,0 3,-2 3,-3 0,-2 -1,-3 -3,-3 -2,0 -3,1 -3,3zm-8 27l11 0 0 -5 -11 0 0 5zm54 0l11 0 0 -5 -11 0 0 5z" inkscape:connector-curvature="0" sodipodi:nodetypes="cscccccssssccsssscccsccccsccccccsccsccsssssssssssssssssssssssssssssssssssssscccccccccc"/>
  </g>
 </g>
</svg>
