<svg height="15" viewBox="0 0 4.7624999 3.9687501" width="18" xmlns="http://www.w3.org/2000/svg"><path d="m.32717 296.98681c-.07263-.0158-.13478-.0496-.192382-.1045-.06102-.0582-.09765-.11432-.118648-.1818-.01559-.0501-.01614-.10405-.01614-1.57537 0-1.47131.0053322-1.13114.00432824-1.37161-.00100395-.24046.03964318-.28603.05159882-.31034.03058287-.0622.11571795-.1281.17079047-.15343.10127882-.0466-.0281735-.0386 2.15452847-.0386 2.182699 0 2.0535954-.003 2.153052.0475.053333.027.133034.10132.169314.15786.01463.0228.033867.0648.04274.0933.015597.0501.01614.10405.01614 1.57536 0 1.47132-.000554 1.52528-.01614 1.57537-.021.0675-.05762.12359-.118648.1818-.05886.0561-.119705.0886-.196362.10489-.08167.0173-4.024543.0169-4.104178-.00038zm4.058616-.34142c.04678-.0328.04476.0239.0387-1.08503l-.0056-1.02279c-.4321995.38764-.8800681.71018-1.347555 1.09514-.183768.15165-.256725.20234-.366999.25498-.243879.11642-.402311.11642-.64619 0-.11034-.0527-.183303-.10338-.366999-.25505-.4354885-.36274-.96000778-.74954-1.34759-1.09508-.006966.4897-.0110293.99888-.0113 1.46342-.000008.62787-.0011.61256.04444.64443.01707.012.219065.0133 2.004537.0133s1.987466-.001 2.004537-.0133zm-1.85875-1.04649c.08124-.0386.186456-.11099.310016-.21334.05389-.0446.333758-.26781.621936-.49596.629909-.49868.651616-.51677.724105-.60348.158923-.1901.192836-.35203.243245-.51301.04063-.12973-.02585-.15221-.07218-.16581-.02058-.0152-.0553-.0158-1.974909-.0157l-1.987081.00003c-.07258 0-.05477.0812-.05366.12306.006.22165.09456.42559.259431.59756.04816.0502.256407.22096.650189.53304.318636.25252.623427.49566.677314.5403.160651.13308.299939.22151.381291.24207.01755.004.06003.007.09441.005.04945-.003.07573-.01.125894-.0334z" fill="#fff" stroke-width=".00852" transform="translate(0 -293.03123)"/></svg>