<svg height="14" viewBox="0 0 2.6458332 3.7041668" width="10" xmlns="http://www.w3.org/2000/svg"><path d="m1.1368843 296.98674c-.052499-.0173-.1073613-.054-.13969759-.0935-.0174884-.0212-.1686447-.33439-.47448898-.98266-.24684849-.52324-.45613969-.97057-.46508977-.99407-.04656552-.12226-.06191283-.23855-.05660701-.42891.0043052-.15577.01564983-.22501.05752623-.35232.11435432-.3476.41947835-.65526.76791344-.77429.25107678-.0857.54030558-.0871.79713148-.003.3669729.1191.6853184.44564.7924598.81285.03593.12315.046729.20733.046821.36505.0001047.16633-.010126.24222-.047264.35113-.026274.077-.8984121 1.93357-.9325485 1.98515-.027099.041-.074968.0791-.1322358.10558-.055293.0254-.152505.0299-.2139199.009zm.2492327-1.85676c.1081881-.028.2051792-.0849.2866584-.16817.1302812-.13304.182982-.27479.1735723-.46691-.00466-.0947-.016091-.14484-.049765-.21785-.123771-.26838-.4064815-.41076-.6966666-.35087-.14268342.0294-.2750624.11572-.36889043.24046-.10773369.14321-.14298477.32681-.0990768.516.0540821.233.2614523.42249.50411783.46064.062832.009.1859781.004.2500458-.0133z" fill="#fcfcfc" stroke-width=".006953" transform="translate(0 -293.29582)"/></svg>