<svg height="17" viewBox="0 0 3.9687499 4.4979167" width="15" xmlns="http://www.w3.org/2000/svg"><path d="m.96172022 296.33042c-.17783613-.0365-.32733383-.20344-.36987335-.41286-.0118883-.0585-.0131588-.2477-.002496-.37024.0302657-.34782.14197728-.63966.29643825-.77445.10577567-.0922.21507138-.13873.35922788-.15258l.04771-.005.040796.0334c.2514935.20619.5580715.27749.8880138.20653.1475603-.0318.2853038-.10029.4151428-.20679l.04111-.0337.066403.008c.2060932.0238.3663544.13117.4673664.31294.1215993.21879.1835369.52032.174552.84975-.0027.0985-.00661.13821-.017189.17401-.030595.10358-.084243.19163-.1591885.26131-.055553.0517-.1056556.0823-.1664019.10188l-.045711.0147-.9950961.00095c-.8361607.00093-1.0023965-.00032-1.04080675-.008zm.91773848-1.58824c-.141349-.0149-.2800087-.0672-.397335-.14962-.06057-.0425-.1557814-.13809-.2014653-.20214-.050946-.0715-.1003378-.1784-.1186622-.25703-.015615-.0669-.021448-.22978-.010713-.29898.039545-.25492.2142392-.47784.4682011-.59745.1121614-.0529.2146945-.0734.3654634-.0734.198641 0 .3477829.0445.4951896.14805.1859489.13052.3065442.31699.3385872.52355.012115.0782.00473.2388-.014315.31127-.071217.27103-.3116965.50396-.5918153.57324-.1119046.0277-.2171535.0348-.3331322.0226z" fill="#fff" stroke-width=".006828" transform="translate(0 -292.50208)"/></svg>