<svg height="24" viewBox="0 0 7.9374998 6.3500002" width="30" xmlns="http://www.w3.org/2000/svg"><path d="m.42207123 296.99217c-.133786-.0241-.23466-.12102-.367458-.35312-.04865-.085-.05495-.1057-.0546-.17906.000855-.17869.148351-.37928.463332-.63013.252905-.20142.379077-.3264.397743-.394.01299-.0471.009-.0647-.04608-.20499-.08414-.21418-.09819-.28928-.106963-.57147-.01479-.4758.06217-.83239.267597-1.24003.20218297-.40119.44088497-.68632.84928997-1.01448.381926-.30688.950739-.5973 1.383198-.70621.271765-.0684.681341-.1028 1.497189-.12559.740593-.0207.951994-.0396 1.268487-.1136.300758-.0703.457101-.15624.68486-.37648.266865-.25805.344878-.30241.554028-.31501.144368-.009.204192.0116.293493.0994.183424.18035.305017.52443.39916 1.12953.07907.50821.0096 1.19245-.178716 1.75981-.191335.57652-.462352 1.01106-.906697 1.45377-.380753.37936-.796113.67414-1.333776.94659-1.046171.53013-2.112844.63949-3.150458.32299-.06154-.0188-.240701-.0967-.398136-.17314-.337734-.16402-.434093-.20269-.505126-.20269-.09218 0-.149412.0686-.43696797.52381-.08688.13753-.235839.29613-.316365.33684-.06615.0335-.164744.0439-.257037.0273zm1.71895597-1.74522c.02886-.019.195804-.17537.370985-.34754.384446-.37784.573552-.53962.84849-.72586.559181-.37881 1.082963-.53873 1.86967-.57087.235675-.01.24114-.0105.304152-.0495.09166-.0567.143263-.15625.134298-.25917-.0079-.0912-.05445-.16983-.129942-.21979-.04622-.0306-.07158-.0367-.17235-.0415-.06499-.003-.214959.002-.333273.0103-.95307.0705-1.780217.4156-2.51714 1.05004-.318351.27409-.749478.71502-.793173.81122-.03119.0687-.03122.15826-.00005.22686.03146.0693.124511.14894.185845.15914.02614.004.05349.009.06078.0113.02936.007.122322-.0221.171718-.0546z" fill="#fff" stroke-width=".013249" transform="translate(0 -290.64998)"/></svg>