<?xml version="1.0" encoding="UTF-8"?>
<svg clip-rule="evenodd" fill-rule="evenodd" image-rendering="optimizeQuality" shape-rendering="geometricPrecision" text-rendering="geometricPrecision" version="1.1" viewBox="0 0 450 130" xmlns="http://www.w3.org/2000/svg" xmlns:xlink="http://www.w3.org/1999/xlink">
 <defs>
  <style type="text/css"><![CDATA[
    .str0 {stroke:#858589;stroke-width:0.35315;stroke-linecap:round;stroke-linejoin:round}
    .str1 {stroke:white;stroke-width:0.354331;stroke-linecap:round;stroke-linejoin:round}
    .fil4 {fill:none}
    .fil6 {fill:black}
    .fil5 {fill:#3FAD5D}
    .fil7 {fill:#92C440}
    .fil0 {fill:#EFF0F0}
    .fil3 {fill:white}
    .fil8 {fill:#4E5B6A;fill-rule:nonzero}
    .fil1 {fill:url(#id0)}
    .fil2 {fill:url(#id1)}
   ]]></style>
  <linearGradient id="id0" x1="58.683" x2="67.585" y1="65.156" y2="65.156" gradientUnits="userSpaceOnUse">
   <stop stop-color="#D1D2D3" offset="0"/>
   <stop stop-color="#E6E7E8" stop-opacity="0" offset="1"/>
  </linearGradient>
  <linearGradient id="id1" x1="58.683" x2="67.585" y1="65.156" y2="65.156" gradientUnits="userSpaceOnUse" xlink:href="#id0"></linearGradient>
 </defs>
 <filter id="b" x="-.006161" y="-.005847" width="1.0123" height="1.0117" color-interpolation-filters="sRGB">
  <feGaussianBlur stdDeviation=".036351547"/>
 </filter>
 <filter id="c" x="-.012" y="-.012" width="1.024" height="1.024" color-interpolation-filters="sRGB">
  <feGaussianBlur stdDeviation=".036248429"/>
 </filter>
 <filter id="d" x="-.18" y="-.18" width="1.36" height="1.36" color-interpolation-filters="sRGB">
  <feGaussianBlur stdDeviation=".35429918"/>
 </filter>
 <filter id="e" x="-.012094" y="-.011908" width="1.0242" height="1.0238" color-interpolation-filters="sRGB">
  <feGaussianBlur stdDeviation=".14411911"/>
 </filter>
 <filter id="h" x="-.027785" y="-.051112" width="1.0556" height="1.1022" color-interpolation-filters="sRGB">
  <feGaussianBlur stdDeviation=".22417355"/>
 </filter>
 <path class="fil0" d="m64 0s-18 1-27 4-15 7-19 14c-8 14-17 45-17 45s6 2 13 3c6 1 13 3 20 3l30 61v-130zm0 0z"/>
 <path class="fil0" d="m64 0c1 0 18 1 27 4s16 7 20 14c8 14 17 45 17 45s-6 2-14 3c-5 1-12 3-19 3l-31 61v-130zm0 0z"/>
 <path class="fil1 str0" d="m64 0s-18 1-27 4-15 7-19 14c-8 14-17 45-17 45s6 2 13 3c6 1 13 3 20 3l30 61m0-130z"/>
 <path class="fil2 str0" d="m64 0c1 0 18 1 27 4s16 7 20 14c8 14 17 45 17 45s-6 2-14 3c-5 1-12 3-19 3l-31 61m0-130z"/>
 <path class="fil3" d="m64 13h20c13 0 24 11 24 23 0 13-11 24-24 24-8 0-16-4-20-11v-36zm0 0z"/>
 <path class="fil4 str1" d="m64 13h20c13 0 24 11 24 23 0 13-11 24-24 24-8 0-16-4-20-11m0-36z"/>
 <path class="fil3" d="m64 13h-20c-13 0-23 11-23 23 0 13 10 24 23 24 9 0 16-4 20-11v-36zm0 0z"/>
 <path class="fil4 str1" d="m64 13h-20c-13 0-23 11-23 23 0 13 10 24 23 24 9 0 16-4 20-11m0-36z"/>
 <path class="fil3" d="m64 13h20c13 0 24 11 24 23 0 13-11 24-24 24-8 0-16-4-20-11v-36zm0 0z"/>
 <path class="fil4 str1" d="m64 13h20c13 0 24 11 24 23 0 13-11 24-24 24-8 0-16-4-20-11m0-36z"/>
 <path class="fil5" d="m84 59c13 0 22-10 22-22 0-13-9-23-21-23-6 0-11 2-15 5l-4-5v-5c7-6 17-7 25-5 8 1 16 6 21 14 7 14 17 45 17 45s-27 7-41 7c-4 0-8 0-11-1-4-2-7-4-9-7-3-4-4-13-4-13 5 6 12 10 20 10z"/>
 <circle class="fil5" cx="84" cy="36" r="16"/>
 <circle class="fil6" cx="84" cy="37" r="9"/>
 <path class="fil7" d="m44 59c-12 0-22-10-22-22 0-13 10-23 22-23 5 0 11 2 14 5 0 0 4-5 5-5v-5c-7-6-17-7-25-5-8 1-17 6-21 14-8 14-17 45-17 45s27 7 41 7c3 0 7 0 11-1 3-2 7-4 9-7 2-4 3-8 3-13-4 6-12 10-20 10z"/>
 <circle class="fil7" cx="45" cy="36" r="16"/>
 <circle class="fil6" cx="45" cy="37" r="9"/>
 <path class="fil8" d="m184 76v-24c-1-2-6-5-10-5-13 0-14 21-8 29 4 6 13 6 18 0zm0-58h11v65l2 6h-9l-1-4c-11 11-36 5-36-21 0-27 20-31 33-22v-24zm53 20h12c0 15-1 37 2 51h-11l-1-5c-13 9-32 11-32-11v-35h12c0 7-1 35 1 40 3 5 12 1 17-3v-37zm23-20v71h12v-36c6-6 18-11 18 4v32h12v-39c-3-16-19-15-30-7v-25h-12zm86 46c0-12-4-18-12-18-9 0-13 6-13 18s4 18 13 18c8 0 12-6 12-18zm-24-24c12-5 30-3 35 14 4 15 0 36-23 36-31 0-31-42-12-50zm79 24c0-12-4-18-12-18-9 0-13 6-13 18s4 18 13 18c8 0 12-6 12-18zm-24-24c12-5 30-3 35 14 4 15-1 36-23 36-31 0-31-42-12-50zm47-14h12v12h12v8h-12c0 35-3 39 12 33l2 8c-14 7-26 1-26-8v-33h-6v-8h6v-12z"/>
</svg>
