<?xml version="1.0" encoding="UTF-8" standalone="no"?>
<svg
   xmlns:dc="http://purl.org/dc/elements/1.1/"
   xmlns:cc="http://creativecommons.org/ns#"
   xmlns:rdf="http://www.w3.org/1999/02/22-rdf-syntax-ns#"
   xmlns:svg="http://www.w3.org/2000/svg"
   xmlns="http://www.w3.org/2000/svg"
   xmlns:xlink="http://www.w3.org/1999/xlink"
   xmlns:sodipodi="http://sodipodi.sourceforge.net/DTD/sodipodi-0.dtd"
   xmlns:inkscape="http://www.inkscape.org/namespaces/inkscape"
   height="32"
   viewBox="0 0 8.4666658 8.4666668"
   width="32"
   version="1.1"
   id="svg72"
   sodipodi:docname="logo_icon_32х32.svg"
   inkscape:version="0.92.3 (2405546, 2018-03-11)">
  <metadata
     id="metadata78">
    <rdf:RDF>
      <cc:Work
         rdf:about="">
        <dc:format>image/svg+xml</dc:format>
        <dc:type
           rdf:resource="http://purl.org/dc/dcmitype/StillImage" />
        <dc:title></dc:title>
      </cc:Work>
    </rdf:RDF>
  </metadata>
  <defs
     id="defs76" />
  <sodipodi:namedview
     pagecolor="#ffffff"
     bordercolor="#666666"
     borderopacity="1"
     objecttolerance="10"
     gridtolerance="10"
     guidetolerance="10"
     inkscape:pageopacity="0"
     inkscape:pageshadow="2"
     inkscape:window-width="1957"
     inkscape:window-height="1128"
     id="namedview74"
     showgrid="false"
     inkscape:zoom="8.5578051"
     inkscape:cx="0.23928541"
     inkscape:cy="22.366824"
     inkscape:window-x="0"
     inkscape:window-y="0"
     inkscape:window-maximized="0"
     inkscape:current-layer="svg72" />
  <linearGradient
     id="a">
    <stop
       offset="0"
       stop-color="#d1d2d3"
       id="stop2" />
    <stop
       offset="1"
       stop-color="#e6e7e8"
       stop-opacity="0"
       id="stop4" />
  </linearGradient>
  <filter
     id="b"
     height="1.011695"
     width="1.012321"
     x="-0.0061610001"
     y="-0.0058470001"
     style="color-interpolation-filters:sRGB">
    <feGaussianBlur
       stdDeviation=".036351547"
       id="feGaussianBlur7" />
  </filter>
  <filter
     id="c"
     height="1.024"
     width="1.024"
     x="-0.012"
     y="-0.012"
     style="color-interpolation-filters:sRGB">
    <feGaussianBlur
       stdDeviation=".036248429"
       id="feGaussianBlur10" />
  </filter>
  <filter
     id="d"
     height="1.36"
     width="1.36"
     x="-0.18000001"
     y="-0.18000001"
     style="color-interpolation-filters:sRGB">
    <feGaussianBlur
       stdDeviation=".35429918"
       id="feGaussianBlur13" />
  </filter>
  <filter
     id="e"
     height="1.023816"
     width="1.024187"
     x="-0.012094"
     y="-0.011908"
     style="color-interpolation-filters:sRGB">
    <feGaussianBlur
       stdDeviation=".14411911"
       id="feGaussianBlur16" />
  </filter>
  <linearGradient
     id="f"
     gradientUnits="userSpaceOnUse"
     x1="0.61335498"
     x2="29.905819"
     xlink:href="#a"
     y1="244.96524"
     y2="244.96524" />
  <linearGradient
     id="g"
     gradientUnits="userSpaceOnUse"
     x1="14.774123"
     x2="16.727268"
     xlink:href="#a"
     y1="245.05965"
     y2="245.05965" />
  <filter
     id="h"
     height="1.102223"
     width="1.05557"
     x="-0.027784999"
     y="-0.051112"
     style="color-interpolation-filters:sRGB">
    <feGaussianBlur
       stdDeviation=".22417355"
       id="feGaussianBlur21" />
  </filter>
  <g
     transform="matrix(0.81447745,0,0,0.81447745,-0.11845215,-187.21146)"
     id="g70">
    <g
       id="g4604"
       transform="matrix(0.35662794,0,0,0.35053429,-0.06829607,149.17788)">
      <g
         id="g26"
         transform="matrix(0.99508968,0,0,1,0.00471,1e-6)"
         style="fill:#eff0f0;filter:url(#e)">
        <path
           id="path24"
           d="m 15.271439,230.44177 c -0.171699,0.0312 -4.101003,0.30651 -6.0778424,0.93482 -1.9768388,0.62832 -3.5463379,1.56777 -4.4240536,3.149 -1.7245473,3.10682 -3.81030227,10.04978 -3.81030227,10.04978 0,0 1.31918897,0.30785 3.03798687,0.64429 1.3290061,0.26014 2.8969252,0.53737 4.3854516,0.72725 l 6.8887598,13.54181 m 0,-29.04695 c 0.1717,0.0312 4.077295,0.30651 6.054135,0.93482 1.97684,0.62832 3.54634,1.56777 4.424056,3.149 1.724548,3.10682 3.810303,10.04978 3.810303,10.04978 0,0 -1.319189,0.30785 -3.037987,0.64429 -1.329007,0.26014 -2.896927,0.53737 -4.385454,0.72725 l -6.888763,13.54181"
           inkscape:connector-curvature="0"
           style="fill:#eff0f0" />
      </g>
      <g
         id="g30"
         transform="matrix(0.99508968,0,0,1,0.00471,1e-6)"
         style="fill:url(#f);stroke:#c9c9ca;filter:url(#e)">
        <path
           id="path28"
           d="m 15.271439,230.44177 c -0.171699,0.0312 -4.101003,0.30651 -6.0778424,0.93482 -1.9768388,0.62832 -3.5463379,1.56777 -4.4240536,3.149 -1.7245473,3.10682 -3.81030227,10.04978 -3.81030227,10.04978 0,0 1.31918897,0.30785 3.03798687,0.64429 1.3290061,0.26014 2.8969252,0.53737 4.3854516,0.72725 l 6.8887598,13.54181 m 0,-29.04695 c 0.1717,0.0312 4.077295,0.30651 6.054135,0.93482 1.97684,0.62832 3.54634,1.56777 4.424056,3.149 1.724548,3.10682 3.810303,10.04978 3.810303,10.04978 0,0 -1.319189,0.30785 -3.037987,0.64429 -1.329007,0.26014 -2.896927,0.53737 -4.385454,0.72725 l -6.888763,13.54181"
           style="fill:url(#g);stroke:#858589;stroke-width:0.073554;stroke-linecap:round;stroke-linejoin:round"
           inkscape:connector-curvature="0" />
      </g>
      <g
         id="g36"
         transform="translate(0,197)"
         style="fill:#ffffff;stroke:#ffffff;stroke-width:0.073554;stroke-linecap:round;stroke-linejoin:round;filter:url(#h)">
        <path
           id="path32"
           d="m 15.177568,36.325541 c 1.35109,0 3.178246,0.0091 4.422303,0.0091 2.904241,0 5.258593,2.354352 5.258593,5.258593 0,2.904241 -2.354352,5.258594 -5.258593,5.258594 -1.858654,0 -3.487072,-0.93067 -4.422303,-2.386248"
           inkscape:connector-curvature="0" />
        <path
           id="path34"
           d="m 15.175842,36.325541 c -1.351089,0 -3.178245,0.0091 -4.422302,0.0091 -2.9042441,0 -5.2585954,2.354352 -5.2585954,5.258593 0,2.904241 2.3543513,5.258594 5.2585954,5.258594 1.858654,0 3.487072,-0.93067 4.422302,-2.386248 m 0.0017,-8.140039 c 1.35109,0 3.178246,0.0091 4.422303,0.0091 2.904241,0 5.258593,2.354352 5.258593,5.258593 0,2.904241 -2.354352,5.258594 -5.258593,5.258594 -1.858654,0 -3.487072,-0.93067 -4.422303,-2.386248"
           inkscape:connector-curvature="0" />
      </g>
      <g
         id="g54">
        <g
           id="g44"
           style="filter:url(#b)">
          <path
             id="path38"
             d="m 19.668284,243.63347 c 2.768937,0 4.947457,-2.17958 4.947457,-4.99063 0,-2.81105 -2.112374,-5.05678 -4.881311,-5.05678 -1.215769,0 -2.363114,0.36828 -3.235423,1.07161 0,0 -0.879815,-1.03062 -0.955195,-1.18705 -0.07538,-0.15644 0.01227,-1.1007 0.01227,-1.1007 1.524889,-1.22644 3.795612,-1.38338 5.575292,-1.05999 1.77968,0.32339 3.646815,1.46559 4.618253,3.21566 1.724541,3.10682 3.810303,10.04978 3.810303,10.04978 0,0 -6.028384,1.40682 -9.10197,1.49234 -0.822407,0.0229 -1.691859,0.0665 -2.456845,-0.23624 -0.814276,-0.32229 -1.605922,-0.86936 -2.078869,-1.6064 -0.488965,-0.76201 -0.744678,-2.75949 -0.744678,-2.75949 0.978101,1.31672 2.702537,2.16789 4.490716,2.16789 z"
             inkscape:connector-curvature="0"
             style="fill:#3fad5d;filter:url(#b)" />
          <circle
             id="circle40"
             r="3.6248429"
             cy="238.58157"
             cx="19.574152"
             style="fill:#3fad5d;filter:url(#c)" />
          <circle
             id="circle42"
             transform="matrix(0.87623763,0,0,0.87623763,2.422544,29.530315)"
             r="2.361995"
             cy="238.60495"
             cx="19.574152"
             style="filter:url(#d)" />
        </g>
        <g
           id="g52"
           transform="matrix(-1,0,0,1,30.375742,0)"
           style="filter:url(#b)">
          <path
             id="path46"
             d="m 19.668284,243.63347 c 2.768937,0 4.947457,-2.17958 4.947457,-4.99063 0,-2.81105 -2.112374,-5.05678 -4.881311,-5.05678 -1.215769,0 -2.363114,0.36828 -3.235423,1.07161 0,0 -0.879815,-1.03062 -0.955195,-1.18705 -0.07538,-0.15644 0.01227,-1.1007 0.01227,-1.1007 1.524889,-1.22644 3.795612,-1.38338 5.575292,-1.05999 1.77968,0.32339 3.646815,1.46559 4.618253,3.21566 1.724541,3.10682 3.810303,10.04978 3.810303,10.04978 0,0 -6.028384,1.40682 -9.10197,1.49234 -0.822407,0.0229 -1.691859,0.0665 -2.456845,-0.23624 -0.814276,-0.32229 -1.605925,-0.86936 -2.078869,-1.6064 -0.404198,-0.8515 -0.685163,-1.82751 -0.724072,-2.75949 0.978101,1.31672 2.681893,2.16789 4.470072,2.16789 z"
             inkscape:connector-curvature="0"
             style="fill:#92c440;filter:url(#b)" />
          <circle
             id="circle48"
             r="3.6248429"
             cy="238.58157"
             cx="19.574152"
             style="fill:#92c440;filter:url(#c)" />
          <circle
             id="circle50"
             transform="matrix(0.87623763,0,0,0.87623763,2.422544,29.530315)"
             r="2.361995"
             cy="238.60495"
             cx="19.574152"
             style="filter:url(#d)" />
        </g>
      </g>
    </g>
  </g>
</svg>
