<?xml version="1.0" encoding="UTF-8" standalone="no"?>
<svg
   xmlns:dc="http://purl.org/dc/elements/1.1/"
   xmlns:cc="http://creativecommons.org/ns#"
   xmlns:rdf="http://www.w3.org/1999/02/22-rdf-syntax-ns#"
   xmlns:svg="http://www.w3.org/2000/svg"
   xmlns="http://www.w3.org/2000/svg"
   xmlns:xlink="http://www.w3.org/1999/xlink"
   height="47"
   viewBox="0 0 41.274996 12.435417"
   width="156"
   version="1.1"
   id="svg72">
  <metadata
     id="metadata78">
    <rdf:RDF>
      <cc:Work
         rdf:about="">
        <dc:format>image/svg+xml</dc:format>
        <dc:type
           rdf:resource="http://purl.org/dc/dcmitype/StillImage" />
        <dc:title></dc:title>
      </cc:Work>
    </rdf:RDF>
  </metadata>
  <defs
     id="defs76" />
  <linearGradient
     id="a">
    <stop
       offset="0"
       stop-color="#d1d2d3"
       id="stop2" />
    <stop
       offset="1"
       stop-color="#e6e7e8"
       stop-opacity="0"
       id="stop4" />
  </linearGradient>
  <filter
     id="b"
     color-interpolation-filters="sRGB"
     height="1.011695"
     width="1.012321"
     x="-.006161"
     y="-.005847">
    <feGaussianBlur
       stdDeviation=".036351547"
       id="feGaussianBlur7" />
  </filter>
  <filter
     id="c"
     color-interpolation-filters="sRGB"
     height="1.024"
     width="1.024"
     x="-.012"
     y="-.012">
    <feGaussianBlur
       stdDeviation=".036248429"
       id="feGaussianBlur10" />
  </filter>
  <filter
     id="d"
     color-interpolation-filters="sRGB"
     height="1.36"
     width="1.36"
     x="-.18"
     y="-.18">
    <feGaussianBlur
       stdDeviation=".35429918"
       id="feGaussianBlur13" />
  </filter>
  <filter
     id="e"
     color-interpolation-filters="sRGB"
     height="1.023816"
     width="1.024187"
     x="-.012094"
     y="-.011908">
    <feGaussianBlur
       stdDeviation=".14411911"
       id="feGaussianBlur16" />
  </filter>
  <linearGradient
     id="f"
     gradientUnits="userSpaceOnUse"
     x1=".613355"
     x2="29.905819"
     xlink:href="#a"
     y1="244.96524"
     y2="244.96524" />
  <linearGradient
     id="g"
     gradientUnits="userSpaceOnUse"
     x1="14.774123"
     x2="16.727268"
     xlink:href="#a"
     y1="245.05965"
     y2="245.05965" />
  <filter
     id="h"
     color-interpolation-filters="sRGB"
     height="1.102223"
     width="1.05557"
     x="-.027785"
     y="-.051112">
    <feGaussianBlur
       stdDeviation=".22417355"
       id="feGaussianBlur21" />
  </filter>
  <g
     transform="matrix(.40723873 0 0 .40723873 .01411 -93.53805)"
     id="g70">
    <g
       id="g918">
      <g
         id="g898">
        <path
           id="path881"
           transform="matrix(0.99508968,0,0,1,0.00471,1e-6)"
           d="m 15.271439,230.44177 c -0.171699,0.0312 -4.101003,0.30651 -6.0778424,0.93482 -1.9768388,0.62832 -3.5463379,1.56777 -4.4240536,3.149 -1.7245473,3.10682 -3.81030227,10.04978 -3.81030227,10.04978 0,0 1.31918897,0.30785 3.03798687,0.64429 1.3290061,0.26014 2.8969252,0.53737 4.3854516,0.72725 l 6.8887598,13.54181"
           style="fill:#eff0f0;filter:url(#e)" />
        <path
           id="path24"
           transform="matrix(0.99508968,0,0,1,0.00471,1e-6)"
           d="m 15.271439,230.44177 c 0.1717,0.0312 4.077295,0.30651 6.054135,0.93482 1.97684,0.62832 3.54634,1.56777 4.424056,3.149 1.724548,3.10682 3.810303,10.04978 3.810303,10.04978 0,0 -1.319189,0.30785 -3.037987,0.64429 -1.329007,0.26014 -2.896927,0.53737 -4.385454,0.72725 l -6.888763,13.54181"
           style="fill:#eff0f0;filter:url(#e)" />
        <path
           id="path877"
           transform="matrix(0.99508968,0,0,1,0.00471,1e-6)"
           d="m 15.271439,230.44177 c -0.171699,0.0312 -4.101003,0.30651 -6.0778424,0.93482 -1.9768388,0.62832 -3.5463379,1.56777 -4.4240536,3.149 -1.7245473,3.10682 -3.81030227,10.04978 -3.81030227,10.04978 0,0 1.31918897,0.30785 3.03798687,0.64429 1.3290061,0.26014 2.8969252,0.53737 4.3854516,0.72725 l 6.8887598,13.54181"
           style="fill:url(#g);stroke:#858589;stroke-width:0.073554;stroke-linecap:round;stroke-linejoin:round;filter:url(#e)" />
        <path
           id="path28"
           transform="matrix(0.99508968,0,0,1,0.00471,1e-6)"
           d="m 15.271439,230.44177 c 0.1717,0.0312 4.077295,0.30651 6.054135,0.93482 1.97684,0.62832 3.54634,1.56777 4.424056,3.149 1.724548,3.10682 3.810303,10.04978 3.810303,10.04978 0,0 -1.319189,0.30785 -3.037987,0.64429 -1.329007,0.26014 -2.896927,0.53737 -4.385454,0.72725 l -6.888763,13.54181"
           style="fill:url(#g);stroke:#858589;stroke-width:0.073554;stroke-linecap:round;stroke-linejoin:round;filter:url(#e)" />
        <path
           id="path32"
           d="m 15.177568,233.32554 c 1.35109,0 3.178246,0.009 4.422303,0.009 2.904241,0 5.258593,2.35435 5.258593,5.25859 0,2.90424 -2.354352,5.2586 -5.258593,5.2586 -1.858654,0 -3.487072,-0.93067 -4.422303,-2.38625"
           style="fill:#ffffff;stroke:#ffffff;stroke-width:0.073554;stroke-linecap:round;stroke-linejoin:round;filter:url(#h)" />
        <path
           id="path871"
           d="m 15.175842,233.32554 c -1.351089,0 -3.178245,0.009 -4.422302,0.009 -2.9042441,0 -5.2585954,2.35435 -5.2585954,5.25859 0,2.90424 2.3543513,5.2586 5.2585954,5.2586 1.858654,0 3.487072,-0.93067 4.422302,-2.38625"
           style="fill:#ffffff;stroke:#ffffff;stroke-width:0.073554;stroke-linecap:round;stroke-linejoin:round;filter:url(#h)" />
        <path
           id="path34"
           d="m 15.177542,233.32544 c 1.35109,0 3.178246,0.009 4.422303,0.009 2.904241,0 5.258593,2.35435 5.258593,5.25859 0,2.90424 -2.354352,5.2586 -5.258593,5.2586 -1.858654,0 -3.487072,-0.93067 -4.422303,-2.38625"
           style="fill:#ffffff;stroke:#ffffff;stroke-width:0.073554;stroke-linecap:round;stroke-linejoin:round;filter:url(#h)" />
        <g
           id="g44"
           style="filter:url(#b)">
          <path
             id="path38"
             d="m 19.668284,243.63347 c 2.768937,0 4.947457,-2.17958 4.947457,-4.99063 0,-2.81105 -2.112374,-5.05678 -4.881311,-5.05678 -1.215769,0 -2.363114,0.36828 -3.235423,1.07161 0,0 -0.879815,-1.03062 -0.955195,-1.18705 -0.07538,-0.15644 0.01227,-1.1007 0.01227,-1.1007 1.524889,-1.22644 3.795612,-1.38338 5.575292,-1.05999 1.77968,0.32339 3.646815,1.46559 4.618253,3.21566 1.724541,3.10682 3.810303,10.04978 3.810303,10.04978 0,0 -6.028384,1.40682 -9.10197,1.49234 -0.822407,0.0229 -1.691859,0.0665 -2.456845,-0.23624 -0.814276,-0.32229 -1.605922,-0.86936 -2.078869,-1.6064 -0.488965,-0.76201 -0.744678,-2.75949 -0.744678,-2.75949 0.978101,1.31672 2.702537,2.16789 4.490716,2.16789 z"
             style="fill:#3fad5d;filter:url(#b)" />
          <circle
             id="circle40"
             r="3.6248429"
             cy="238.58157"
             cx="19.574152"
             style="fill:#3fad5d;filter:url(#c)" />
          <circle
             id="circle42"
             transform="matrix(0.87623763,0,0,0.87623763,2.422544,29.530315)"
             r="2.361995"
             cy="238.60495"
             cx="19.574152"
             style="filter:url(#d)" />
        </g>
        <g
           id="g52"
           transform="matrix(-1,0,0,1,30.375742,1e-6)"
           style="filter:url(#b)">
          <path
             id="path46"
             d="m 19.668284,243.63347 c 2.768937,0 4.947457,-2.17958 4.947457,-4.99063 0,-2.81105 -2.112374,-5.05678 -4.881311,-5.05678 -1.215769,0 -2.363114,0.36828 -3.235423,1.07161 0,0 -0.879815,-1.03062 -0.955195,-1.18705 -0.07538,-0.15644 0.01227,-1.1007 0.01227,-1.1007 1.524889,-1.22644 3.795612,-1.38338 5.575292,-1.05999 1.77968,0.32339 3.646815,1.46559 4.618253,3.21566 1.724541,3.10682 3.810303,10.04978 3.810303,10.04978 0,0 -6.028384,1.40682 -9.10197,1.49234 -0.822407,0.0229 -1.691859,0.0665 -2.456845,-0.23624 -0.814276,-0.32229 -1.605925,-0.86936 -2.078869,-1.6064 -0.404198,-0.8515 -0.685163,-1.82751 -0.724072,-2.75949 0.978101,1.31672 2.681893,2.16789 4.470072,2.16789 z"
             style="fill:#92c440;filter:url(#b)" />
          <circle
             id="circle48"
             r="3.6248429"
             cy="238.58157"
             cx="19.574152"
             style="fill:#92c440;filter:url(#c)" />
          <circle
             id="circle50"
             transform="matrix(0.87623763,0,0,0.87623763,2.422544,29.530315)"
             r="2.361995"
             cy="238.60495"
             cx="19.574152"
             style="filter:url(#d)" />
        </g>
      </g>
      <g
         id="g68"
         transform="matrix(.31538416 0 0 .35780985 -16.259702 156.40162)"
         fill="#4e5b6a">
        <path
           id="path66"
           d="m 352.574,222.42283 h 8.448 v 7.424 h 8.128 v 5.248 h -8.128 v 18.816 q 0,2.944 2.24,3.072 1.472,0.128 5.76,-1.408 l 1.728,4.8 q -4.416,1.984 -7.744,1.984 -0.64,0 -1.408,-0.064 -3.84,-0.256 -6.464,-2.24 -2.56,-2.048 -2.56,-4.672 v -20.288 h -4.608 v -5.248 h 4.608 z m -33.435,8.384 q 3.52,-1.408 8.192,-1.408 4.672,0 8.128,1.408 3.52,1.344 5.44,3.712 1.92,2.368 2.816,5.184 0.96,2.816 0.96,6.144 0,3.328 -0.96,6.144 -0.896,2.816 -2.816,5.184 -1.92,2.368 -5.44,3.776 -3.456,1.344 -8.128,1.344 -4.672,0 -8.192,-1.344 -3.456,-1.408 -5.376,-3.776 -1.92,-2.368 -2.88,-5.184 -0.896,-2.816 -0.896,-6.144 0,-3.328 0.896,-6.144 0.96,-2.816 2.88,-5.184 1.92,-2.368 5.376,-3.712 z m 17.088,15.04 q 0,-11.264 -8.96,-11.264 -8.896,0 -8.896,11.264 0,11.264 8.896,11.264 8.96,0 8.96,-11.264 z m -55.963,-15.04 q 3.52,-1.408 8.192,-1.408 4.672,0 8.128,1.408 3.52,1.344 5.44,3.712 1.92,2.368 2.816,5.184 0.96,2.816 0.96,6.144 0,3.328 -0.96,6.144 -0.896,2.816 -2.816,5.184 -1.92,2.368 -5.44,3.776 -3.456,1.344 -8.128,1.344 -4.672,0 -8.192,-1.344 -3.456,-1.408 -5.376,-3.776 -1.92,-2.368 -2.88,-5.184 -0.896,-2.816 -0.896,-6.144 0,-3.328 0.896,-6.144 0.96,-2.816 2.88,-5.184 1.92,-2.368 5.376,-3.712 z m 17.088,15.04 q 0,-11.264 -8.96,-11.264 -8.896,0 -8.896,11.264 0,11.264 8.896,11.264 8.96,0 8.96,-11.264 z m -61.143,-28.8 h 8.384 v 15.68 q 4.608,-2.752 9.088,-3.2 1.024,-0.128 2.048,-0.128 2.496,0 4.352,0.768 1.856,0.704 2.88,1.792 1.088,1.024 1.728,2.56 0.64,1.472 0.832,2.816 0.256,1.28 0.256,2.752 v 21.76 h -8.256 v -20.48 q 0,-2.688 -0.96,-4.224 -0.96,-1.536 -3.648,-1.536 -0.896,0 -2.048,0.192 -3.136,0.576 -6.272,3.072 v 22.976 h -8.384 z m -16.246,12.8 h 8.576 v 27.52 l 0.832,4.48 h -7.808 l -0.576,-3.264 q -5.248,3.136 -10.432,3.648 -1.152,0.128 -2.112,0.128 -2.56,0 -4.48,-0.704 -1.856,-0.768 -2.944,-1.792 -1.088,-1.088 -1.728,-2.56 -0.64,-1.536 -0.896,-2.816 -0.192,-1.344 -0.192,-2.816 v -21.824 h 8.512 v 20.544 q 0,2.688 0.896,4.224 0.96,1.536 3.712,1.536 0.896,0 2.048,-0.192 3.2,-0.576 6.592,-3.264 z m -38.119,-12.8 h 8.384 v 41.088 l 1.344,3.712 h -6.592 l -0.896,-2.56 q -3.328,3.072 -9.28,3.072 -3.968,-0.064 -7.168,-1.536 -3.136,-1.472 -5.056,-3.84 -1.92,-2.368 -2.944,-5.184 -1.024,-2.88 -1.024,-5.952 0,-3.264 0.768,-6.08 0.832,-2.816 2.496,-5.248 1.728,-2.432 4.8,-3.776 3.072,-1.344 7.168,-1.216 4.352,0.192 8,2.624 z m 0,36.736 v -15.488 q -2.752,-2.432 -5.504,-2.688 -0.704,-0.064 -1.344,-0.064 -4.224,0 -6.144,2.816 -1.856,2.816 -1.856,7.488 0,4.48 2.304,7.424 2.304,2.944 6.528,2.944 h 0.768 q 3.072,-0.256 5.248,-2.432 z" />
      </g>
    </g>
  </g>
</svg>
