<svg height="47" viewBox="0 0 41.274996 12.435417" width="156" xmlns="http://www.w3.org/2000/svg" xmlns:xlink="http://www.w3.org/1999/xlink"><linearGradient id="a"><stop offset="0" stop-color="#d1d2d3"/><stop offset="1" stop-color="#e6e7e8" stop-opacity="0"/></linearGradient><filter id="b" color-interpolation-filters="sRGB" height="1.011695" width="1.012321" x="-.006161" y="-.005847"><feGaussianBlur stdDeviation=".036351547"/></filter><filter id="c" color-interpolation-filters="sRGB" height="1.024" width="1.024" x="-.012" y="-.012"><feGaussianBlur stdDeviation=".036248429"/></filter><filter id="d" color-interpolation-filters="sRGB" height="1.36" width="1.36" x="-.18" y="-.18"><feGaussianBlur stdDeviation=".35429918"/></filter><filter id="e" color-interpolation-filters="sRGB" height="1.023816" width="1.024187" x="-.012094" y="-.011908"><feGaussianBlur stdDeviation=".14411911"/></filter><linearGradient id="f" gradientUnits="userSpaceOnUse" x1=".613355" x2="29.905819" xlink:href="#a" y1="244.96524" y2="244.96524"/><linearGradient id="g" gradientUnits="userSpaceOnUse" x1="14.774123" x2="16.727268" xlink:href="#a" y1="245.05965" y2="245.05965"/><filter id="h" color-interpolation-filters="sRGB" height="1.102223" width="1.05557" x="-.027785" y="-.051112"><feGaussianBlur stdDeviation=".22417355"/></filter><g transform="matrix(.40723873 0 0 .40723873 .01411 -93.53805)"><g fill="#eff0f0" filter="url(#e)" transform="matrix(.99508968 0 0 1 .00471 .000001)"><path d="m15.271439 230.44177c-.171699.0312-4.101003.30651-6.0778424.93482-1.9768388.62832-3.5463379 1.56777-4.4240536 3.149-1.7245473 3.10682-3.81030227 10.04978-3.81030227 10.04978s1.31918897.30785 3.03798687.64429c1.3290061.26014 2.8969252.53737 4.3854516.72725l6.8887598 13.54181m0-29.04695c.1717.0312 4.077295.30651 6.054135.93482 1.97684.62832 3.54634 1.56777 4.424056 3.149 1.724548 3.10682 3.810303 10.04978 3.810303 10.04978s-1.319189.30785-3.037987.64429c-1.329007.26014-2.896927.53737-4.385454.72725l-6.888763 13.54181" fill="#eff0f0"/></g><g fill="url(#f)" filter="url(#e)" stroke="#c9c9ca" transform="matrix(.99508968 0 0 1 .00471 .000001)"><path d="m15.271439 230.44177c-.171699.0312-4.101003.30651-6.0778424.93482-1.9768388.62832-3.5463379 1.56777-4.4240536 3.149-1.7245473 3.10682-3.81030227 10.04978-3.81030227 10.04978s1.31918897.30785 3.03798687.64429c1.3290061.26014 2.8969252.53737 4.3854516.72725l6.8887598 13.54181m0-29.04695c.1717.0312 4.077295.30651 6.054135.93482 1.97684.62832 3.54634 1.56777 4.424056 3.149 1.724548 3.10682 3.810303 10.04978 3.810303 10.04978s-1.319189.30785-3.037987.64429c-1.329007.26014-2.896927.53737-4.385454.72725l-6.888763 13.54181" fill="url(#g)" stroke="#858589" stroke-linecap="round" stroke-linejoin="round" stroke-width=".073554"/></g><g style="filter:url(#h);fill:#fff;stroke:#fff;stroke-width:.073554;stroke-linecap:round;stroke-linejoin:round" transform="translate(0 197)"><path d="m15.177568 36.325541c1.35109 0 3.178246.0091 4.422303.0091 2.904241 0 5.258593 2.354352 5.258593 5.258593s-2.354352 5.258594-5.258593 5.258594c-1.858654 0-3.487072-.93067-4.422303-2.386248"/><path d="m15.175842 36.325541c-1.351089 0-3.178245.0091-4.422302.0091-2.9042441 0-5.2585954 2.354352-5.2585954 5.258593s2.3543513 5.258594 5.2585954 5.258594c1.858654 0 3.487072-.93067 4.422302-2.386248m.0017-8.140039c1.35109 0 3.178246.0091 4.422303.0091 2.904241 0 5.258593 2.354352 5.258593 5.258593s-2.354352 5.258594-5.258593 5.258594c-1.858654 0-3.487072-.93067-4.422303-2.386248"/></g><g transform="translate(0 .000001)"><g filter="url(#b)"><path d="m19.668284 243.63347c2.768937 0 4.947457-2.17958 4.947457-4.99063s-2.112374-5.05678-4.881311-5.05678c-1.215769 0-2.363114.36828-3.235423 1.07161 0 0-.879815-1.03062-.955195-1.18705-.07538-.15644.01227-1.1007.01227-1.1007 1.524889-1.22644 3.795612-1.38338 5.575292-1.05999s3.646815 1.46559 4.618253 3.21566c1.724541 3.10682 3.810303 10.04978 3.810303 10.04978s-6.028384 1.40682-9.10197 1.49234c-.822407.0229-1.691859.0665-2.456845-.23624-.814276-.32229-1.605922-.86936-2.078869-1.6064-.488965-.76201-.744678-2.75949-.744678-2.75949.978101 1.31672 2.702537 2.16789 4.490716 2.16789z" fill="#3fad5d" filter="url(#b)"/><circle cx="19.574152" cy="238.58157" fill="#3fad5d" filter="url(#c)" r="3.624843"/><circle cx="19.574152" cy="238.60495" filter="url(#d)" r="2.361995" transform="matrix(.87623763 0 0 .87623763 2.422544 29.530315)"/></g><g filter="url(#b)" transform="matrix(-1 0 0 1 30.375742 0)"><path d="m19.668284 243.63347c2.768937 0 4.947457-2.17958 4.947457-4.99063s-2.112374-5.05678-4.881311-5.05678c-1.215769 0-2.363114.36828-3.235423 1.07161 0 0-.879815-1.03062-.955195-1.18705-.07538-.15644.01227-1.1007.01227-1.1007 1.524889-1.22644 3.795612-1.38338 5.575292-1.05999s3.646815 1.46559 4.618253 3.21566c1.724541 3.10682 3.810303 10.04978 3.810303 10.04978s-6.028384 1.40682-9.10197 1.49234c-.822407.0229-1.691859.0665-2.456845-.23624-.814276-.32229-1.605925-.86936-2.078869-1.6064-.404198-.8515-.685163-1.82751-.724072-2.75949.978101 1.31672 2.681893 2.16789 4.470072 2.16789z" fill="#92c440" filter="url(#b)"/><circle cx="19.574152" cy="238.58157" fill="#92c440" filter="url(#c)" r="3.624843"/><circle cx="19.574152" cy="238.60495" filter="url(#d)" r="2.361995" transform="matrix(.87623763 0 0 .87623763 2.422544 29.530315)"/></g></g><g fill="#4e5b6a" transform="matrix(.31538416 0 0 .35780985 -16.259702 156.40162)"><path d="m181.844 217.04683h8.384v41.088l1.344 3.712h-6.592l-.896-2.56q-3.328 3.072-9.28 3.072-3.968-.064-7.168-1.536-3.136-1.472-5.056-3.84-1.92-2.368-2.944-5.184-1.024-2.88-1.024-5.952 0-3.264.768-6.08.832-2.816 2.496-5.248 1.728-2.432 4.8-3.776 3.072-1.344 7.168-1.216 4.352.192 8 2.624zm0 36.736v-15.488q-2.752-2.432-5.504-2.688-.704-.064-1.344-.064-4.224 0-6.144 2.816-1.856 2.816-1.856 7.488 0 4.48 2.304 7.424 2.304 2.944 6.528 2.944h.768q3.072-.256 5.248-2.432z"/><path d="m219.963 229.84683h8.576v27.52l.832 4.48h-7.808l-.576-3.264q-5.248 3.136-10.432 3.648-1.152.128-2.112.128-2.56 0-4.48-.704-1.856-.768-2.944-1.792-1.088-1.088-1.728-2.56-.64-1.536-.896-2.816-.192-1.344-.192-2.816v-21.824h8.512v20.544q0 2.688.896 4.224.96 1.536 3.712 1.536.896 0 2.048-.192 3.2-.576 6.592-3.264z"/><path d="m236.209 217.04683h8.384v15.68q4.608-2.752 9.088-3.2 1.024-.128 2.048-.128 2.496 0 4.352.768 1.856.704 2.88 1.792 1.088 1.024 1.728 2.56.64 1.472.832 2.816.256 1.28.256 2.752v21.76h-8.256v-20.48q0-2.688-.96-4.224-.96-1.536-3.648-1.536-.896 0-2.048.192-3.136.576-6.272 3.072v22.976h-8.384z"/><path d="m280.264 230.80683q3.52-1.408 8.192-1.408 4.672 0 8.128 1.408 3.52 1.344 5.44 3.712 1.92 2.368 2.816 5.184.96 2.816.96 6.144 0 3.328-.96 6.144-.896 2.816-2.816 5.184-1.92 2.368-5.44 3.776-3.456 1.344-8.128 1.344-4.672 0-8.192-1.344-3.456-1.408-5.376-3.776-1.92-2.368-2.88-5.184-.896-2.816-.896-6.144 0-3.328.896-6.144.96-2.816 2.88-5.184 1.92-2.368 5.376-3.712zm17.088 15.04q0-11.264-8.96-11.264-8.896 0-8.896 11.264 0 11.264 8.896 11.264 8.96 0 8.96-11.264z"/><path d="m319.139 230.80683q3.52-1.408 8.192-1.408 4.672 0 8.128 1.408 3.52 1.344 5.44 3.712 1.92 2.368 2.816 5.184.96 2.816.96 6.144 0 3.328-.96 6.144-.896 2.816-2.816 5.184-1.92 2.368-5.44 3.776-3.456 1.344-8.128 1.344-4.672 0-8.192-1.344-3.456-1.408-5.376-3.776-1.92-2.368-2.88-5.184-.896-2.816-.896-6.144 0-3.328.896-6.144.96-2.816 2.88-5.184 1.92-2.368 5.376-3.712zm17.088 15.04q0-11.264-8.96-11.264-8.896 0-8.896 11.264 0 11.264 8.896 11.264 8.96 0 8.96-11.264z"/><path d="m352.574 222.42283h8.448v7.424h8.128v5.248h-8.128v18.816q0 2.944 2.24 3.072 1.472.128 5.76-1.408l1.728 4.8q-4.416 1.984-7.744 1.984-.64 0-1.408-.064-3.84-.256-6.464-2.24-2.56-2.048-2.56-4.672v-20.288h-4.608v-5.248h4.608z"/></g></g></svg>