<?xml version="1.0" encoding="UTF-8" standalone="no"?>
<svg
   xmlns:dc="http://purl.org/dc/elements/1.1/"
   xmlns:cc="http://creativecommons.org/ns#"
   xmlns:rdf="http://www.w3.org/1999/02/22-rdf-syntax-ns#"
   xmlns:svg="http://www.w3.org/2000/svg"
   xmlns="http://www.w3.org/2000/svg"
   xmlns:sodipodi="http://sodipodi.sourceforge.net/DTD/sodipodi-0.dtd"
   xmlns:inkscape="http://www.inkscape.org/namespaces/inkscape"
   height="23"
   viewBox="0 0 6.0854165 6.0854168"
   width="23"
   version="1.1"
   id="svg4"
   sodipodi:docname="search_icon.svg"
   inkscape:version="0.92.1 r15371">
  <metadata
     id="metadata10">
    <rdf:RDF>
      <cc:Work
         rdf:about="">
        <dc:format>image/svg+xml</dc:format>
        <dc:type
           rdf:resource="http://purl.org/dc/dcmitype/StillImage" />
        <dc:title></dc:title>
      </cc:Work>
    </rdf:RDF>
  </metadata>
  <defs
     id="defs8" />
  <sodipodi:namedview
     pagecolor="#ffffff"
     bordercolor="#666666"
     borderopacity="1"
     objecttolerance="10"
     gridtolerance="10"
     guidetolerance="10"
     inkscape:pageopacity="0"
     inkscape:pageshadow="2"
     inkscape:window-width="1364"
     inkscape:window-height="885"
     id="namedview6"
     showgrid="false"
     inkscape:pagecheckerboard="true"
     inkscape:zoom="20.521739"
     inkscape:cx="8.2131781"
     inkscape:cy="14.580191"
     inkscape:window-x="0"
     inkscape:window-y="0"
     inkscape:window-maximized="0"
     inkscape:current-layer="svg4" />
  <path
     d="M 5.4940711,6.0681547 C 5.4040011,6.0411092 5.3398791,5.9894132 5.1047731,5.7541667 4.9934541,5.6427909 4.7062551,5.3594412 4.4665551,5.124514 l -0.43582,-0.4271602 -0.127429,0.080338 C 3.4602111,5.05697 2.8978471,5.1859005 2.3483511,5.1341746 1.5612821,5.0601236 0.8641541,4.6511567 0.4352631,4.0119533 0.3462531,3.8793003 0.1755241,3.5311709 0.1243091,3.3778994 c -0.129052,-0.3862126 -0.161253,-0.9121641 -0.07949,-1.2983767 0.214161,-1.0116539 0.927498,-1.75370034 1.928715,-2.00632188 1.119607,-0.28251139 2.34765,0.2738588 2.877282,1.30355628 0.118688,0.2307556 0.162308,0.3435885 0.220125,0.569424 0.169671,0.662746 0.0679,1.3652022 -0.280852,1.9385682 l -0.08904,0.1463754 0.656355,0.6587541 c 0.422649,0.4241862 0.668975,0.6854504 0.691798,0.7337332 0.05006,0.1059168 0.0479,0.2945572 -0.0045,0.3939172 -0.107632,0.2040593 -0.345337,0.3122615 -0.550626,0.2506455 z m -2.652571,-1.8731 c 0.349521,-0.056586 0.618168,-0.1975623 0.888716,-0.4663114 0.332474,-0.3302553 0.486258,-0.6954004 0.486258,-1.1545862 0,-0.4647346 -0.153656,-0.8253288 -0.495269,-1.1622607 -0.333405,-0.3288481 -0.691228,-0.47774842 -1.148048,-0.47774842 -0.455313,0 -0.825485,0.15541722 -1.156844,0.48571242 -0.357667,0.3565124 -0.507063,0.7443818 -0.480705,1.2480281 0.02126,0.4062124 0.155473,0.7207194 0.434697,1.0186198 0.257758,0.2749965 0.574363,0.4504434 0.914778,0.5069397 0.141092,0.023453 0.416866,0.024251 0.556417,0.002 z"
     id="path2"
     inkscape:connector-curvature="0"
     style="fill:#ffffff;stroke-width:0.01876513" />
</svg>
