<svg height="6" viewBox="0 0 3.7041666 1.5875" width="14" xmlns="http://www.w3.org/2000/svg"><svg height="6" version="1.1" width="14"><path d="m2.6989094 296.99323c-.008-.003-.0204-.0139-.0282-.0238-.0139-.0176-.0142-.0228-.0142-.25813v-.24016l-1.3015549-.00024c-1.39926534-.00025-1.32246505.002-1.34204512-.0336-.01280005-.0229-.01280005-.43796 0-.46086.01960007-.0351-.05720022-.0333 1.34204512-.0336l1.3015549-.00023.0001-.23941c.00008-.17787.002-.24359.009-.25567.01-.0197.0508-.0365.0744-.0306.0164.004.802873.71107.8318531.74776.0179.0226.0174.0482-.00096.0738-.011.0151-.7094226.65925-.805093.74252-.0163.0142-.0475.0198-.0661.012z" fill="#566375" transform="translate(0 -295.4125)"/></svg></svg>