<svg height="29" viewBox="0 0 3.9687499 7.6729169" width="15" xmlns="http://www.w3.org/2000/svg"><path d="m1.29908 296.85415c-.0535-.0194-.10262-.0705-.11839-.12307-.0154-.0513-.0629.15292.56608-2.43052.16507-.67798.29784-1.23497.29505-1.23776-.003-.003-.41089.0953-.90689.21803-.496.12271-.92116.22303-.94482.22293-.0604-.00025-.11049-.024-.15331-.0728-.0301-.0342-.0368-.0514-.0368-.0942 0-.0402.61076-2.58205.86684-3.60752.0297-.11898.0415-.14825.0743-.18455.0222-.0246.0568-.0481.0805-.0547.0262-.007.32317-.0116.80261-.0116.73755-.00004.76254.00064.808.0226.0258.0125.0588.0388.0734.0585.0579.0782.0699.0378-.35114 1.17995-.21305.57797-.38563 1.05258-.38351 1.0547.002.002.40912-.0961.90443-.21826 1.02156-.25195.95036-.24198 1.04579-.14655.0915.0915.19261-.14807-1.16361 2.75635-.66143 1.4165-1.21298 2.59012-1.22567 2.60805-.0449.0634-.14953.0905-.23287.0603z" fill="#fff" stroke-width=".011371" transform="translate(0 -289.32707)"/></svg>