<svg enable-background="new 0 0 90 90" height="19" viewBox="0 0 16 19" width="16" xmlns="http://www.w3.org/2000/svg"><g fill="#fff" transform="matrix(.26058632 0 0 .25000001 -3.726385 -1.75)"><path d="m67.6 60.8c-.5 0-1-.1-1.4-.3-2.4-1.1-5.388758-2.167415-8.088758-2.867415l2.288758-6.432585c1.9.5 3.8 1.2 5.7 1.9 1.5-3.7 2.3-7.7 2.3-11.9-.1-15.2-10.6-27.5-23.4-27.5s-23.3 12.3-23.3 27.5c0 4.1.8 8.2 2.3 11.9 1.8-.7 3.7-1.3 5.7-1.9l2.288758 6.272475c-2.7.7-5.688758 1.927525-8.088758 3.027525-1.6.8-3.6.1-4.4-1.4-3-5.4-4.5-11.6-4.5-17.9 0-18.9 13.4-34.2 30-34.2s30 15.3 30 34.2c0 6.3-1.5 12.5-4.4 17.9-.6 1.1-1.8 1.7-3 1.7z"/><path d="m43.3 64.6c-8.9-1-15.6-9.4-18.4-23-.3-1.3-.4-2.6-.5-4.2 0-.5.1-.9.5-1.3.3-.3.8-.5 1.2-.5h9.2l1.5-10.8c.1-.8.8-1.4 1.7-1.4.8 0 1.5.6 1.7 1.4l1.5 10.8h2.3l.5-5.1c.1-.9.8-1.5 1.7-1.5s1.6.7 1.7 1.5l.5 5.1h15.5c.5 0 .9.2 1.2.5s.5.8.5 1.3c-.1 1.5-.2 2.9-.5 4.2-1.5 7.4-4.1 13.2-7.7 17.2-1.551866 1.813025-1.914318 2.071304-4 3.4-.661939.436393-1.267763.716888-1.9 1.1-3.168735 1.217099-4.207468 1.487887-8.2 1.3zm11.6-8.1c3.1-3.5 5.5-8.8 6.9-15.5.1-.6.2-1.2.3-1.9h-15.2c-.2 0-.5 0-.7-.1-.2.1-.4.1-.7.1h-5.3c-.8 0-1.5-.6-1.7-1.5v-.3.3c-.1.8-.8 1.5-1.7 1.5h-8.9c.1.7.2 1.3.3 1.9 2.5 12.1 9.021593 20.294869 15.4 20.3 6.378407.0051 8.109011-1.609011 11.3-4.8z"/><path d="m21 83h-6.7c0-12.5 10.8-22.7 24.2-22.7v6.7c-9.7 0-17.5 7.2-17.5 16z"/><path d="m75.7 83h-6.7c0-8.8-7.8-16-17.5-16v-6.7c13.4 0 24.2 10.2 24.2 22.7z"/><path d="m37.9 41.6c-1.1 0-2 .9-2 2s.9 2 2 2 2-.9 2-2-.9-2-2-2z"/><path d="m52.1 41.6c-1.1 0-2 .9-2 2s.9 2 2 2 2-.9 2-2-.9-2-2-2z"/></g></svg>