<svg height="31" viewBox="0 0 4.4979165 8.2020835" width="17" xmlns="http://www.w3.org/2000/svg"><path d="m1.4362263 295.00062v-1.73482h-.58081969-.58081985v-.65599c0-.3608-.00418-.66687-.009287-.68017-.008361-.0218.0488843-.0242.57943065-.0242h.58870969l.00725-.65343c.00778-.70184.015134-.78065.096562-1.03554.099639-.31187.270221-.56161.5119306-.74949.3532205-.27455.7575796-.37416 1.4275558-.35167.299862.0101.6409011.033.7145609.048l.042034.009v.60254.60253l-.4394375.00026c-.4807096.00027-.5964592.0138-.7151722.0833-.088307.0518-.1519895.1323-.1930712.2442-.032306.088-.034242.11959-.039624.64659l-.00566.55407h.6738444.6738444l-.0077.0344c-.00696.0311-.1762967 1.29622-.1762967 1.31714 0 .005-.2613707.009-.5808198.009h-.580821v1.73426 1.73482h-.7030994-.7030967z" fill="#fff" stroke-width=".015285" transform="translate(0 -288.79792)"/></svg>