<?xml version="1.0" encoding="UTF-8"?>
<!DOCTYPE svg PUBLIC "-//W3C//DTD SVG 1.1//EN" "http://www.w3.org/Graphics/SVG/1.1/DTD/svg11.dtd">
<!-- Creator: CorelDRAW X7 -->
<svg xmlns="http://www.w3.org/2000/svg" xml:space="preserve" width="210mm" height="297mm" version="1.1" style="shape-rendering:geometricPrecision; text-rendering:geometricPrecision; image-rendering:optimizeQuality; fill-rule:evenodd; clip-rule:evenodd"
viewBox="0 0 21000 29700"
 xmlns:xlink="http://www.w3.org/1999/xlink"
 xmlns:dc="http://purl.org/dc/elements/1.1/"
 xmlns:cc="http://creativecommons.org/ns#"
 xmlns:rdf="http://www.w3.org/1999/02/22-rdf-syntax-ns#"
 xmlns:svg="http://www.w3.org/2000/svg">
 <defs>
  <style type="text/css">
   <![CDATA[
    .fil0 {fill:#FEFEFE}
   ]]>
  </style>
 </defs>
 <g id="Слой_x0020_1">
  <metadata id="CorelCorpID_0Corel-Layer"/>
  <path id="path4" class="fil0" d="M10714 14936l0 -101 -103 0 0 -39 103 0 0 -104 39 0 0 104 103 0 0 39 -103 0 0 101 -39 0zm-244 -181c26,-34 19,-98 8,-137 -18,-59 -57,-111 -113,-111 -26,0 -47,8 -65,28 -27,29 -34,62 -20,125 14,63 39,110 102,125 29,7 72,-9 88,-30zm72 308c-9,-56 -51,-80 -105,-118 -78,1 -153,9 -184,49 -18,19 -31,55 -25,82 13,65 72,88 126,98 83,16 202,-17 188,-111zm-230 155c-45,-4 -93,-18 -126,-49 -25,-23 -45,-55 -43,-91 5,-84 54,-114 130,-140 39,-14 66,-16 103,-19 10,-1 24,-1 24,-1 3,-1 2,-5 -2,-10 -19,-25 -33,-54 -17,-87 5,-10 3,-11 -19,-10 -56,7 -107,-8 -144,-66 -38,-59 -37,-114 -1,-172 38,-62 114,-89 152,-91 38,-2 247,-4 244,-2l-48 28 -29 0c-25,0 -29,0 -30,2 0,1 0,3 0,3 37,29 61,72 66,109 5,38 -4,73 -24,104 -21,35 -60,47 -79,79 -4,8 -6,17 -6,25 -1,19 15,33 30,44 31,26 67,50 90,84 19,28 28,60 23,98 -5,47 -40,95 -92,126 -58,37 -134,43 -202,36l0 0z"/>
 </g>
</svg>
