<svg width="29" height="31" version="1.1" viewBox="0 0 7.6729 8.2021" xmlns="http://www.w3.org/2000/svg">
 <path d="m5.9764 4.9625.0005327-1.0116h-1.0299v-.38852h1.0309l-.0008864-1.0399h.38858v1.0399h1.0326l.0008865.38852h-1.0335v1.0116zm-2.4441-1.8101c.26645-.34587.19576-.97746.079185-1.3679-.17806-.59637-.561-1.1165-1.1265-1.1132-.25889.00097-.47237.0835-.65207.28316-.26192.29104-.33839.61593-.19558 1.2446.14282.62873.39287 1.0989 1.0199 1.2533.29379.0724.71463-.0918.87504-.29997zm.7236 3.0798c-.085261-.56616-.50465-.80071-1.0445-1.1771-.78668.008-1.5373.084-1.8478.48723-.17779.19315-.30412.54491-.24939.81978.1288.64685.71907.88331 1.2592.98312.82822.15306 2.0243-.17139 1.8825-1.113zm-2.2998 1.5506c-.44883-.0427-.93202-.18026-1.2615-.48806-.24642-.23023-.45106-.55075-.42823-.91664.052352-.8388.54147-1.138 1.305-1.4008.38554-.13269.65759-.15685 1.0266-.18741.09371-.008.23402-.007.24303-.0105.026472-.009.018962-.0469-.019661-.0973-.19781-.25596-.33378-.54604-.17215-.86906.050178-.0987.029163-.10959-.18989-.0981-.56075.0647-1.0738-.0883-1.4458-.66264-.38098-.58813-.36208-1.139-.00777-1.7171.3814-.62235 1.1448-.89479 1.524-.91608.37918-.0213 2.471-.0339 2.4378-.0148l-.4856.27915h-.28659c-.24925 0-.28763.002-.29455.0207-.00438.0116-.00796.0236-.00796.0274.37613.29159.61265.71748.66234 1.0922.049689.37477-.036243.72341-.23417 1.0422-.21605.34798-.60861.4678-.79049.78073-.047699.0821-.063132.17607-.062957.25301-.00762.19626.15339.32743.29702.44377.31622.25612.67545.49978.90487.833.19214.28476.27487.60029.23034.9811-.055896.47791-.40622.9515-.92521 1.2592-.57994.37226-1.3378.43036-2.0184.36549z" style="fill:#3a3a3a;stroke-width:.010562"/>
</svg>
