<svg width="30" height="24" version="1.1" viewBox="0 0 7.9375 6.35" xmlns="http://www.w3.org/2000/svg">
 <path transform="translate(0 -290.65)" d="m2.1820633 296.71774c-.485081-.0433-1.074756-.20601-1.47345298-.40664-.08567-.0431-.444041-.24305-.444027-.24773.000004-.001.164931-.003.366504-.003.42293498 0 .60865698-.0271.95173298-.13909.296494-.0968.582188-.24281.813495-.41589l.09973-.0746-.163922-.0237c-.195671-.0282-.306902-.0629-.48091-.14982-.306191-.15294-.569381-.42833-.707204-.73997-.0244-.0552-.04436-.10719-.04436-.11561 0-.008.102296-.0144.227325-.0134.326883.003.511048-.0365.343718-.0732-.114006-.025-.348227-.1349-.464499-.21787-.24231398-.17291-.46503098-.45876-.55259298-.70924-.04889-.13986-.09211-.35839-.09211-.46576v-.0822l.06959.0349c.120219.0604.286902.11026.43897298.13141.08068.0112.148746.0182.15125.0155.0025-.003-.05043-.0508-.117625-.10692-.22707798-.18969-.41007098-.47943-.48988098-.77563-.02947-.10936-.03843-.19746-.03812-.37491.000442-.26017.0342-.42249.133319-.6411l.05772-.1273.11387.12904c.70185398.79533 1.69302098 1.31599 2.72801198 1.43303.150044.017.27734.0263.282878.0208.0055-.006.0011-.0804-.0099-.16638-.09336-.72906.373157-1.42851 1.09116-1.63596.210681-.0609.618308-.0604.831203.001.197267.0569.403932.16934.559508.30443.122784.10662.129878.11.208552.0995.136579-.0183.519899-.15557.702072-.25148.0947-.0498.172179-.0814.172179-.0702s-.03333.0893-.07407.17346c-.107874.22287-.262158.40274-.501555.58473l-.0637.0484.126894-.017c.138703-.0186.482257-.11491.639699-.17936l.09944-.0407-.09786.12579c-.126441.16251-.403151.44614-.551027.56479l-.115982.0931-.000016.17933c-.00014 1.23994-.560595 2.47365-1.512099 3.32833-.81307.73034-2.016549 1.1036-3.213866.99681z" fill="#fff" stroke-width=".018557"/>
</svg>
