<svg width="26" height="31" version="1.1" viewBox="0 0 6.8792 8.2021" xmlns="http://www.w3.org/2000/svg">
 <g fill="#fff">
  <path transform="matrix(.26253 0 0 .26123 -.091271 -.008177)" d="m5.5625 14.965c-2.3232 0-4.207 2.4095-4.207 5.3809v4.6895c0 2.9709 1.8838 5.3809 4.207 5.3809h15.773c2.3231 0 4.207-2.4095 4.207-5.3809v-4.6895c0-2.9714-1.8837-5.3809-4.207-5.3809zm-1.9434 2.0684h4.4258v1.4551h-1.4863v9.6895h-1.5176v-9.6895h-1.4219zm10.074 2e-3h1.4219v3.625c0.55511-0.6349 0.92892-0.88672 1.3535-0.88672 0.32669 0 0.68638 0.20148 0.84961 0.46875 0.1797 0.30062 0.22852 0.60098 0.22852 1.4863v4.6113c0 0.86867-0.04881 1.1702-0.22852 1.4707-0.16322 0.28425-0.52219 0.48438-0.86523 0.48438-0.4246 0-0.78278-0.25077-1.3379-0.90234v0.78516h-1.4219zm7.3145 2.7383c1.1756 0 1.9102 0.78594 1.9102 2.0723v2.4395h-2.4648v1.8203c0 0.6017 0.14791 0.85156 0.52344 0.85156 0.1797 0 0.34239-0.09992 0.42383-0.25 0.08167-0.15039 0.09766-0.33415 0.09766-0.93555v-0.50195h1.4199v0.30078c0.01636 0.21724 0.01758 0.36764 0.01758 0.45117 0 1.4701-0.70227 2.2734-1.9922 2.2734-1.2245 0-1.9102-0.83628-1.9102-2.3398v-3.8594c0-1.5703 0.65221-2.3223 1.9746-2.3223zm-12.701 0.10152h1.4199v6.4648c0 0.41781 0.11374 0.61719 0.375 0.61719 0.17958 0 0.34287-0.08369 0.63672-0.33398v-6.748h1.4199v8.3027h-1.3047l-0.11524-0.71875c-0.5877 0.61807-0.92977 0.83594-1.3379 0.83594-0.34293 0-0.70201-0.20118-0.86523-0.46875-0.17958-0.28395-0.22852-0.58521-0.22852-1.4375zm7.4453 1.2363c-0.1797 0-0.34298 0.08354-0.63672 0.33398v5.1777c0.29397 0.25059 0.45714 0.33398 0.63672 0.33398 0.26114 0 0.375-0.19938 0.375-0.61719v-4.6113c0-0.43418-0.11386-0.61719-0.375-0.61719zm5.2246 0c-0.32645 0-0.52344 0.21546-0.52344 0.59961v1.4043h1.0449v-1.4043c0-0.38415-0.1948-0.59961-0.52148-0.59961z" stroke-width=".13405"/>
  <g transform="matrix(.03112 0 0 .039603 -12.149 -13.745)" enable-background="new">
   <path d="m433.28 353.76h15.304l1.97 7.879 1.667 5.818 1.364 5.697 1.364 5.939 1.061 4.97h0.606l1.061-4.97 1.212-5.939 1.515-5.697 1.515-5.818 2.121-7.879h14.849l-15.758 47.274v33.577h-14.091v-33.577z"/>
   <path d="m497.83 373.64c11.97 0 18.031 5.697 18.031 16.97v27.88c0 11.273-6.061 16.97-18.031 16.97s-18.031-5.697-18.031-16.97v-27.88c0-11.272 6.06-16.97 18.031-16.97zm0 9.698c-3.182 0-4.849 1.939-4.849 5.576v31.272c0 3.515 1.818 5.576 4.849 5.576s4.849-2.061 4.849-5.576v-31.272c-1e-3 -3.637-1.819-5.576-4.849-5.576z"/>
   <path d="m553.43 434.61-1.061-5.212c-5.455 4.485-8.638 6.061-12.426 6.061-3.182 0-6.515-1.455-8.029-3.394-1.668-2.061-2.121-4.243-2.121-10.425v-47.274h13.182v46.911c0 3.03 1.061 4.485 3.484 4.485 1.668 0 3.183-0.606 5.91-2.424v-48.972h13.183v60.244z"/>
  </g>
 </g>
</svg>
